<svg width="1728" height="1412" viewBox="0 0 1728 1412" fill="none" xmlns="http://www.w3.org/2000/svg">
<g clip-path="url(#clip0_651_381)">
<path d="M1730.62 347L1583 261.924V91.7832L1730.62 176.859V347.011V347ZM1584.26 261.195L1585.65 261.993L1729.36 344.803V177.576L1584.26 93.9688V261.195Z" fill="#60EEF1"/>
<path d="M1734.5 170.152L1734.19 169.967L1586.88 85.0761L1734.5 0L1734.81 0.185023L1882.12 85.0761L1734.5 170.152ZM1589.41 85.0761L1734.5 168.695L1859.52 96.6516L1879.59 85.0761L1734.5 1.45706L1589.41 85.0761Z" fill="#60EEF1"/>
<path d="M1734.55 170.175L1734.18 169.967L1587.83 85.6196L1588.46 84.5326L1735.65 169.354L1734.55 170.175Z" fill="#60EEF1"/>
</g>
<g clip-path="url(#clip1_651_381)">
<path d="M1730.62 892L1583 806.924V636.783L1730.62 721.859V892.012V892ZM1584.26 806.195L1585.65 806.993L1729.36 889.803V722.576L1584.26 638.969V806.195Z" fill="#60EEF1"/>
<path d="M1734.5 715.152L1734.19 714.967L1586.88 630.076L1734.5 545L1734.81 545.185L1882.12 630.076L1734.5 715.152ZM1589.41 630.076L1734.5 713.695L1859.52 641.652L1879.59 630.076L1734.5 546.457L1589.41 630.076Z" fill="#60EEF1"/>
<path d="M1734.55 715.175L1734.18 714.967L1587.83 630.62L1588.46 629.533L1735.65 714.354L1734.55 715.175Z" fill="#60EEF1"/>
</g>
<g clip-path="url(#clip2_651_381)">
<path d="M1576.62 619L1429 533.924V363.783L1576.62 448.859V619.012V619ZM1430.26 533.195L1431.65 533.993L1575.36 616.803V449.576L1430.26 365.969V533.195Z" fill="#60EEF1"/>
<path d="M1580.5 442.152L1580.19 441.967L1432.88 357.076L1580.5 272L1580.81 272.185L1728.12 357.076L1580.5 442.152ZM1435.41 357.076L1580.5 440.695L1705.52 368.652L1725.59 357.076L1580.5 273.457L1435.41 357.076Z" fill="#60EEF1"/>
<path d="M1580.55 442.175L1580.18 441.967L1433.83 357.62L1434.46 356.533L1581.65 441.354L1580.55 442.175Z" fill="#60EEF1"/>
<path d="M1584.38 619V448.848L1584.69 448.663L1732 363.772V533.924L1729.97 535.092L1584.38 619ZM1585.64 449.588V616.814L1730.74 533.195V365.969L1585.64 449.588Z" fill="#60EEF1"/>
</g>
<g clip-path="url(#clip3_651_381)">
<path d="M2.00016 1006.97L1.7173 1006.8L-131.49 929.985L2.00016 853L2.28301 853.167L135.491 929.985L2.00016 1006.97ZM-129.206 929.985L2.00016 1005.65L115.051 940.46L133.207 929.985L2.00016 854.318L-129.206 929.985Z" fill="#60EEF1"/>
<path d="M2.04189 1006.99L1.70665 1006.8L-130.631 930.477L-130.066 929.493L3.03714 1006.25L2.04189 1006.99Z" fill="#60EEF1"/>
<path d="M5.50977 1167V1013.03L5.79263 1012.86L139 936.044V1090.01L137.167 1091.07L5.50977 1167ZM6.65171 1013.7V1165.02L137.858 1089.36V938.032L6.65171 1013.7Z" fill="#60EEF1"/>
</g>
<g clip-path="url(#clip4_651_381)">
<path d="M141.49 1412L8 1335.01V1181.05L141.49 1258.04V1412.01V1412ZM9.14193 1334.36L10.3991 1335.08L140.348 1410.01V1258.69L9.14193 1183.03V1334.36Z" fill="#60EEF1"/>
<path d="M145 1251.97L144.717 1251.8L11.5098 1174.99L145 1098L145.283 1098.17L278.491 1174.99L145 1251.97ZM13.7936 1174.99L145 1250.65L258.051 1185.46L276.207 1174.99L145 1099.32L13.7936 1174.99Z" fill="#60EEF1"/>
<path d="M145.042 1251.99L144.707 1251.8L12.3687 1175.48L12.9344 1174.49L146.037 1251.25L145.042 1251.99Z" fill="#60EEF1"/>
<path d="M148.51 1412V1258.03L148.793 1257.86L282 1181.04V1335.01L280.167 1336.07L148.51 1412ZM149.652 1258.7V1410.02L280.858 1334.36V1183.03L149.652 1258.7Z" fill="#60EEF1"/>
</g>
<defs>
<clipPath id="clip0_651_381">
<rect width="303" height="347" fill="white" transform="translate(1583)"/>
</clipPath>
<clipPath id="clip1_651_381">
<rect width="303" height="347" fill="white" transform="translate(1583 545)"/>
</clipPath>
<clipPath id="clip2_651_381">
<rect width="303" height="347" fill="white" transform="translate(1429 272)"/>
</clipPath>
<clipPath id="clip3_651_381">
<rect width="274" height="314" fill="white" transform="translate(-135 853)"/>
</clipPath>
<clipPath id="clip4_651_381">
<rect width="274" height="314" fill="white" transform="translate(8 1098)"/>
</clipPath>
</defs>
</svg>
