<?xml version="1.0" encoding="utf-8"?>
<!-- Generator: Adobe Illustrator 27.6.1, SVG Export Plug-In . SVG Version: 6.00 Build 0)  -->
<svg version="1.1" id="Layer_1" xmlns="http://www.w3.org/2000/svg" xmlns:xlink="http://www.w3.org/1999/xlink" x="0px" y="0px"
	 viewBox="0 0 1728 580.7" style="enable-background:new 0 0 1728 580.7;" xml:space="preserve">
<style type="text/css">
	.st0{fill:none;stroke:#2DD697;stroke-width:0.9105;}
	.st1{fill:#60EEF1;fill-opacity:0.5;}
	.st2{fill:none;stroke:#40B2EA;stroke-width:0.7606;}
	.st3{fill:#14264D;}
	.st4{clip-path:url(#SVGID_00000090993332178847638240000009524872941984490371_);}
</style>
<path class="st0" d="M1572.2,173.8L1572.2,173.8l-0.9-0.5V65.4l30.7,17.1v0l66.2,36.8v54.8v53.1L1572.2,173.8z"/>
<path class="st0" d="M1671.6,5.6l96.9,54l-13.3,7.4l-83.5,46.5l-96.9-53.9L1671.6,5.6z"/>
<path class="st0" d="M1772,65.4v107.9l-0.9,0.5l0,0l-96,53.5v-53.1v-54.8l44.6-24.8l-0.2-0.4l0.2,0.4L1772,65.4z"/>
<path class="st0" d="M1676,346.2L1676,346.2l-0.9-0.5V237.8l30.7,17.1l0,0l66.2,36.8v54.8v53.1L1676,346.2z"/>
<path class="st0" d="M1775.5,178l96.9,54l-13.3,7.4l-83.5,46.5l-96.9-53.9L1775.5,178z"/>
<path class="st0" d="M1468.3,346.2L1468.3,346.2l-0.9-0.5V237.8l30.7,17.1l0,0l66.2,36.8v54.8v53.1L1468.3,346.2z"/>
<path class="st0" d="M1567.8,178l96.9,54l-13.3,7.4l-83.5,46.5l-96.9-53.9L1567.8,178z"/>
<path class="st0" d="M1668.2,237.8v107.9l-0.9,0.5l0,0l-96,53.5v-53.1v-54.8l44.6-24.8l-0.2-0.4l0.2,0.4L1668.2,237.8z"/>
<path class="st0" d="M1572.2,517.9L1572.2,517.9l-0.9-0.5V409.5l30.7,17.1l0,0l66.2,36.8v54.8v53.1L1572.2,517.9z"/>
<path class="st0" d="M1671.6,349.7l96.9,54l-13.3,7.4l-83.5,46.5l-96.9-53.9L1671.6,349.7z"/>
<path class="st0" d="M1772,409.5v107.9l-0.9,0.5l0,0l-96,53.5v-53.1v-54.8l44.6-24.8l-0.2-0.4l0.2,0.4L1772,409.5z"/>
</svg>
