<?xml version="1.0" encoding="utf-8"?>
<!-- Generator: Adobe Illustrator 27.6.1, SVG Export Plug-In . SVG Version: 6.00 Build 0)  -->
<svg version="1.1" id="Layer_1" xmlns="http://www.w3.org/2000/svg" xmlns:xlink="http://www.w3.org/1999/xlink" x="0px" y="0px"
	 viewBox="0 0 1728 1773.8" style="enable-background:new 0 0 1728 1773.8;" xml:space="preserve">
<style type="text/css">
	.st0{fill:none;stroke:#2DD697;stroke-width:0.9105;}
	.st1{fill:#60EEF1;fill-opacity:0.5;}
	.st2{fill:none;stroke:#40B2EA;stroke-width:0.7606;}
	.st3{fill:#14264D;}
	.st4{clip-path:url(#SVGID_00000063626505527176098680000005068748031821605270_);}
</style>
<path class="st1" d="M-16.5,108l-46.1-22.7v141.2l1.7,0.8l141.9,69.8v-69.8V156L-16.5,108z"/>
<path class="st1" d="M208.3,89l20.6-10.2L85.3,8.2L-58.2,78.8l143.6,70.6L208.3,89z"/>
<path class="st1" d="M155.5,123.6L89.8,156v71.4v69.8l141.9-69.8l1.7-0.8V85.3L155.5,123.6z"/>
<path class="st2" d="M1661.4,1507.7l-80.2-39.5l0,0l-0.7-0.4v-79.6l25.7,12.6l0,0l55.3,27.2v40.4V1507.7z"/>
<path class="st2" d="M1664.3,1344.2l80.9,39.8l-11.1,5.4l-69.8,34.3l-80.9-39.8L1664.3,1344.2z"/>
<path class="st2" d="M1748.2,1388.3v79.6l-0.7,0.4l0,0l-80.2,39.5v-39.1v-40.4l37.2-18.3l-0.2-0.3l0.2,0.3L1748.2,1388.3z"/>
<path class="st2" d="M1748.2,1634.9l-80.2-39.5h0l-0.7-0.4v-79.6l25.7,12.6l0,0l55.3,27.2v40.4V1634.9z"/>
<path class="st2" d="M1751.1,1471.4l80.9,39.8l-11,5.4l-69.8,34.3l-80.9-39.8L1751.1,1471.4z"/>
<path class="st2" d="M1574.7,1634.9l-80.2-39.5l0,0l-0.7-0.4v-79.6l25.7,12.6l0,0l55.3,27.2v40.4V1634.9z"/>
<path class="st2" d="M1577.6,1471.4l80.9,39.8l-11.1,5.4l-69.8,34.3l-80.9-39.8L1577.6,1471.4z"/>
<path class="st2" d="M1661.4,1515.5v79.6l-0.7,0.4l0,0l-80.2,39.5v-39.1v-40.4l37.2-18.3l-0.2-0.3l0.2,0.3L1661.4,1515.5z"/>
<path class="st2" d="M1661.4,1761.6l-80.2-39.5l0,0l-0.7-0.4v-79.6l25.7,12.6l0,0l55.3,27.2v40.4V1761.6z"/>
<path class="st2" d="M1664.3,1598.1l80.9,39.8l-11.1,5.4l-69.8,34.3l-80.9-39.8L1664.3,1598.1z"/>
<path class="st2" d="M1748.2,1642.2v79.6l-0.7,0.4l0,0l-80.2,39.5v-39.1v-40.4l37.2-18.3l-0.2-0.3l0.2,0.3L1748.2,1642.2z"/>
</svg>
