<svg width="1728" height="5007" viewBox="0 0 1728 5007" fill="none" xmlns="http://www.w3.org/2000/svg">
<g clip-path="url(#clip0_651_384)">
<path d="M1581.55 4943.63L1541.53 4920.49V5064.58L1542.98 5065.42L1666.13 5136.63V5065.42V4992.54L1581.55 4943.63Z" fill="#14264D"/>
<path d="M1776.68 4924.18L1794.57 4913.82L1669.97 4841.79L1545.36 4913.82L1669.97 4985.87L1776.68 4924.18Z" fill="#14264D"/>
<path d="M1730.88 4959.54L1673.81 4992.54V5065.42V5136.63L1796.95 5065.42L1798.42 5064.58V4920.49L1730.88 4959.54Z" fill="#14264D"/>
<path d="M1448.03 4711.85L1408 4688.7V4832.79L1409.45 4833.63L1532.6 4904.84V4833.63V4760.75L1448.03 4711.85Z" fill="#14264D"/>
<path d="M1643.15 4692.39L1661.04 4682.05L1536.44 4610L1411.83 4682.05L1536.44 4754.09L1643.15 4692.39Z" fill="#14264D"/>
<path d="M1597.35 4727.75L1540.28 4760.75V4833.63V4904.84L1663.43 4833.63L1664.89 4832.79V4688.7L1597.35 4727.75Z" fill="#14264D"/>
<path d="M1716.29 4711.85L1676.27 4688.7V4832.79L1677.73 4833.63L1800.87 4904.84V4833.63V4760.75L1716.29 4711.85Z" fill="#14264D"/>
<path d="M1911.41 4692.39L1929.32 4682.05L1804.72 4610L1680.11 4682.05L1804.72 4754.09L1911.41 4692.39Z" fill="#14264D"/>
</g>
<g clip-path="url(#clip1_651_384)">
<path d="M-78.709 4868.85L-118.735 4845.7V4989.79L-117.273 4990.63L5.86872 5061.84V4990.63V4917.75L-78.709 4868.85Z" fill="#14264D"/>
<path d="M116.413 4849.39L134.319 4839.05L9.71467 4767L-114.889 4839.05L9.71467 4911.09L116.413 4849.39Z" fill="#14264D"/>
<path d="M70.6177 4884.75L13.5493 4917.75V4990.63V5061.84L136.702 4990.63L138.153 4989.79V4845.7L70.6177 4884.75Z" fill="#14264D"/>
<path d="M187.138 4868.85L147.112 4845.7V4989.79L148.563 4990.63L271.716 5061.84V4990.63V4917.75L187.138 4868.85Z" fill="#14264D"/>
<path d="M382.26 4849.39L400.154 4839.05L275.55 4767L150.946 4839.05L275.55 4911.09L382.26 4849.39Z" fill="#14264D"/>
<path d="M336.465 4884.75L279.396 4917.75V4990.63V5061.84L402.538 4990.63L404 4989.79V4845.7L336.465 4884.75Z" fill="#14264D"/>
</g>
<path d="M1562.55 185.524L1562.55 185.524L1561.54 184.968V66.4532L1595.31 85.2501L1595.31 85.2502L1667.98 125.721V185.961V244.236L1562.55 185.524Z" stroke="#2DD697"/>
<path d="M1671.8 0.805222L1778.21 60.0674L1763.55 68.2304L1671.8 119.32L1565.39 60.0674L1671.8 0.805222Z" stroke="#2DD697"/>
<path d="M1782.04 66.4534V184.969L1781.05 185.524L1781.04 185.525L1675.6 244.236V185.961V125.721L1724.55 98.4658L1724.31 98.029L1724.55 98.4658L1782.04 66.4534Z" stroke="#2DD697"/>
<path d="M1676.59 374.9L1676.59 374.899L1675.58 374.343V255.829L1709.35 274.626L1709.35 274.626L1782.02 315.097V375.337V433.612L1676.59 374.9Z" stroke="#2DD697"/>
<path d="M1785.84 190.181L1892.25 249.443L1877.59 257.606L1785.84 308.696L1679.43 249.443L1785.84 190.181Z" stroke="#2DD697"/>
<path d="M1448.5 374.9L1448.5 374.899L1447.5 374.343V255.829L1481.27 274.626L1481.27 274.626L1553.94 315.097V375.337V433.612L1448.5 374.9Z" stroke="#2DD697"/>
<path d="M1557.75 190.181L1664.16 249.443L1649.51 257.606L1557.75 308.696L1451.34 249.443L1557.75 190.181Z" stroke="#2DD697"/>
<path d="M1668 255.829V374.344L1667 374.9L1667 374.9L1561.56 433.612V375.337V315.097L1610.51 287.841L1610.27 287.404L1610.51 287.841L1668 255.829Z" stroke="#2DD697"/>
<path d="M1562.55 563.437L1562.55 563.437L1561.54 562.881V444.366L1595.31 463.163L1595.31 463.163L1667.98 503.634V563.874V622.149L1562.55 563.437Z" stroke="#2DD697"/>
<path d="M1671.8 378.718L1778.21 437.98L1763.55 446.143L1671.8 497.233L1565.39 437.98L1671.8 378.718Z" stroke="#2DD697"/>
<path d="M1782.04 444.366V562.882L1781.05 563.437L1781.04 563.438L1675.6 622.149V563.874V503.634L1724.55 476.379L1724.31 475.942L1724.55 476.379L1782.04 444.366Z" stroke="#2DD697"/>
<path d="M-23.2615 1929.83L-86 1898.98V2091.15L-83.7077 2092.27L109.309 2187.23V2092.27V1995.06L-23.2615 1929.83Z" fill="#60EEF1" fill-opacity="0.5"/>
<path d="M282.58 1903.9L310.646 1890.09L115.337 1794L-79.9717 1890.09L115.337 1986.17L282.58 1903.9Z" fill="#60EEF1" fill-opacity="0.5"/>
<path d="M210.799 1951.06L121.348 1995.06V2092.27V2187.23L314.383 2092.27L316.657 2091.15V1898.98L210.799 1951.06Z" fill="#60EEF1" fill-opacity="0.5"/>
<path d="M1650.98 3331.36L1545.52 3279.48L1545.52 3279.48L1544.54 3279V3174.41L1578.33 3191.03L1578.33 3191.03L1650.98 3226.77V3279.93V3331.36Z" stroke="#40B2EA"/>
<path d="M1654.8 3116.41L1761.1 3168.72L1746.57 3175.86L1654.8 3221.01L1548.49 3168.72L1654.8 3116.41Z" stroke="#40B2EA"/>
<path d="M1765.04 3174.41V3279L1764.07 3279.48L1764.07 3279.48L1658.6 3331.36V3279.93V3226.77L1707.53 3202.7L1707.31 3202.25L1707.53 3202.7L1765.04 3174.41Z" stroke="#40B2EA"/>
<path d="M1765.02 3498.66L1659.57 3446.78L1659.56 3446.78L1658.58 3446.3V3341.71L1692.38 3358.32L1692.38 3358.32L1765.02 3394.07V3447.23V3498.66Z" stroke="#40B2EA"/>
<path d="M1768.84 3283.71L1875.14 3336.01L1860.62 3343.16L1768.84 3388.31L1662.53 3336.01L1768.84 3283.71Z" stroke="#40B2EA"/>
<path d="M1536.94 3498.66L1431.48 3446.78L1431.48 3446.78L1430.5 3446.3V3341.71L1464.29 3358.32L1464.29 3358.32L1536.94 3394.07V3447.23V3498.66Z" stroke="#40B2EA"/>
<path d="M1540.75 3283.71L1647.06 3336.01L1632.53 3343.16L1540.75 3388.31L1434.45 3336.01L1540.75 3283.71Z" stroke="#40B2EA"/>
<path d="M1651 3341.71V3446.3L1650.03 3446.78L1650.03 3446.78L1544.56 3498.66V3447.23V3394.07L1593.49 3370L1593.27 3369.55L1593.49 3370L1651 3341.71Z" stroke="#40B2EA"/>
<path d="M1650.98 3665.22L1545.52 3613.34L1545.52 3613.34L1544.54 3612.86V3508.27L1578.33 3524.88L1578.33 3524.88L1650.98 3560.62V3613.79V3665.22Z" stroke="#40B2EA"/>
<path d="M1654.8 3450.27L1761.1 3502.57L1746.57 3509.72L1654.8 3554.87L1548.49 3502.57L1654.8 3450.27Z" stroke="#40B2EA"/>
<path d="M1765.04 3508.27V3612.86L1764.07 3613.34L1764.07 3613.34L1658.6 3665.22V3613.79V3560.62L1707.53 3536.56L1707.31 3536.11L1707.53 3536.56L1765.04 3508.27Z" stroke="#40B2EA"/>
<defs>
<clipPath id="clip0_651_384">
<rect width="791" height="758" fill="white" transform="translate(1408 4610)"/>
</clipPath>
<clipPath id="clip1_651_384">
<rect width="791" height="758" fill="white" transform="translate(-387 4767)"/>
</clipPath>
</defs>
</svg>
