<?xml version="1.0" encoding="utf-8"?>
<!-- Generator: Adobe Illustrator 27.6.1, SVG Export Plug-In . SVG Version: 6.00 Build 0)  -->
<svg version="1.1" id="Layer_1" xmlns="http://www.w3.org/2000/svg" xmlns:xlink="http://www.w3.org/1999/xlink" x="0px" y="0px"
	 viewBox="0 0 1728 395.9" style="enable-background:new 0 0 1728 395.9;" xml:space="preserve">
<style type="text/css">
	.st0{fill:none;stroke:#2DD697;stroke-width:0.9105;}
	.st1{fill:#60EEF1;fill-opacity:0.5;}
	.st2{fill:none;stroke:#40B2EA;stroke-width:0.7606;}
	.st3{fill:#14264D;}
	.st4{clip-path:url(#SVGID_00000147194166064117863010000017081397549446237065_);}
</style>
<g>
	<path class="st3" d="M-34.4,277.8l-32-18.5v115.3l1.2,0.7l98.5,57v-57V317L-34.4,277.8z"/>
	<path class="st3" d="M121.7,262.3L136,254l-99.7-57.6L-63.4,254l99.7,57.6L121.7,262.3z"/>
	<path class="st3" d="M85,290.6L39.4,317v58.3v57l98.5-57l1.2-0.7V259.3L85,290.6z"/>
	<path class="st3" d="M178.2,277.8l-32-18.5v115.3l1.2,0.7l98.5,57v-57V317L178.2,277.8z"/>
	<path class="st3" d="M334.3,262.3l14.3-8.3L249,196.4L149.3,254l99.7,57.6L334.3,262.3z"/>
	<path class="st3" d="M297.7,290.6L252,317v58.3v57l98.5-57l1.2-0.7V259.3L297.7,290.6z"/>
</g>
<g>
	<defs>
		<rect id="SVGID_1_" x="1487.1" y="105.7" width="632.8" height="606.4"/>
	</defs>
	<clipPath id="SVGID_00000080904603971149170230000006424528307449158790_">
		<use xlink:href="#SVGID_1_"  style="overflow:visible;"/>
	</clipPath>
	<g style="clip-path:url(#SVGID_00000080904603971149170230000006424528307449158790_);">
		<path class="st3" d="M1625.9,372.6l-32-18.5v115.3l1.2,0.7l98.5,57v-57v-58.3L1625.9,372.6z"/>
		<path class="st3" d="M1782,357l14.3-8.3l-99.7-57.6l-99.7,57.6l99.7,57.6L1782,357z"/>
		<path class="st3" d="M1745.4,385.3l-45.7,26.4V470v57l98.5-57l1.2-0.7V354.1L1745.4,385.3z"/>
		<path class="st3" d="M1519.1,187.2l-32-18.5v115.3l1.2,0.7l98.5,57v-57v-58.3L1519.1,187.2z"/>
		<path class="st3" d="M1675.2,171.6l14.3-8.3l-99.7-57.6l-99.7,57.6l99.7,57.6L1675.2,171.6z"/>
		<path class="st3" d="M1638.6,199.9l-45.7,26.4v58.3v57l98.5-57l1.2-0.7V168.6L1638.6,199.9z"/>
		<path class="st3" d="M1733.7,187.2l-32-18.5v115.3l1.2,0.7l98.5,57v-57v-58.3L1733.7,187.2z"/>
		<path class="st3" d="M1889.8,171.6l14.3-8.3l-99.7-57.6l-99.7,57.6l99.7,57.6L1889.8,171.6z"/>
	</g>
</g>
</svg>
