<?xml version="1.0" encoding="utf-8"?>
<!-- Generator: Adobe Illustrator 27.6.1, SVG Export Plug-In . SVG Version: 6.00 Build 0)  -->
<svg version="1.1" id="Layer_1" xmlns="http://www.w3.org/2000/svg" xmlns:xlink="http://www.w3.org/1999/xlink" x="0px" y="0px"
	 viewBox="0 0 1728 376" style="enable-background:new 0 0 1728 376;" xml:space="preserve">
<style type="text/css">
	.st0{fill:none;stroke:#2DD697;stroke-width:0.6901;}
	.st1{fill:#14264D;}
	.st2{clip-path:url(#SVGID_00000098925511009060208570000002819624102519202977_);}
	.st3{clip-path:url(#SVGID_00000152966166188723049600000009757655147877874610_);}
</style>
<g>
	<defs>
		<rect id="SVGID_1_" x="-316.9" y="75.8" width="632.8" height="606.4"/>
	</defs>
	<clipPath id="SVGID_00000059307586018776224640000007944213150434251417_">
		<use xlink:href="#SVGID_1_"  style="overflow:visible;"/>
	</clipPath>
	<g style="clip-path:url(#SVGID_00000059307586018776224640000007944213150434251417_);">
		<path class="st1" d="M85.8,141.7l14.3-8.3L0.5,75.8l-99.7,57.6l99.7,57.6L85.8,141.7z"/>
		<path class="st1" d="M49.2,170L3.5,196.4v58.3v57l98.5-57l1.2-0.7V138.8L49.2,170z"/>
		<path class="st1" d="M142.4,157.3l-32-18.5V254l1.2,0.7l98.5,57v-57v-58.3L142.4,157.3z"/>
		<path class="st1" d="M298.5,141.7l14.3-8.3l-99.7-57.6l-99.7,57.6l99.7,57.6L298.5,141.7z"/>
		<path class="st1" d="M261.9,170l-45.7,26.4v58.3v57l98.5-57l1.2-0.7V138.8L261.9,170z"/>
		<path class="st1" d="M35.6,342.9l-32-18.5v115.3l1.2,0.7l98.5,57v-57V382L35.6,342.9z"/>
		<path class="st1" d="M191.7,327.3L206,319l-99.7-57.6L6.6,319l99.7,57.6L191.7,327.3z"/>
		<path class="st1" d="M155,355.6L109.4,382v58.3v57l98.5-57l1.2-0.7V324.4L155,355.6z"/>
	</g>
</g>
<g>
	<defs>
		<rect id="SVGID_00000067918736772446359300000004396981547958764981_" x="1413.1" y="176.8" width="632.8" height="606.4"/>
	</defs>
	<clipPath id="SVGID_00000180357843440326254920000005732189406100011187_">
		<use xlink:href="#SVGID_00000067918736772446359300000004396981547958764981_"  style="overflow:visible;"/>
	</clipPath>
	<g style="clip-path:url(#SVGID_00000180357843440326254920000005732189406100011187_);">
		<path class="st1" d="M1445.1,258.3l-32-18.5V355l1.2,0.7l98.5,57v-57v-58.3L1445.1,258.3z"/>
		<path class="st1" d="M1601.2,242.7l14.3-8.3l-99.7-57.6l-99.7,57.6l99.7,57.6L1601.2,242.7z"/>
		<path class="st1" d="M1564.6,271l-45.7,26.4v58.3v57l98.5-57l1.2-0.7V239.8L1564.6,271z"/>
		<path class="st1" d="M1659.7,258.3l-32-18.5V355l1.2,0.7l98.5,57v-57v-58.3L1659.7,258.3z"/>
		<path class="st1" d="M1815.8,242.7l14.3-8.3l-99.7-57.6l-99.7,57.6l99.7,57.6L1815.8,242.7z"/>
	</g>
</g>
</svg>
