<?xml version="1.0" encoding="utf-8"?>
<!-- Generator: Adobe Illustrator 27.6.1, SVG Export Plug-In . SVG Version: 6.00 Build 0)  -->
<svg version="1.1" id="Layer_1" xmlns="http://www.w3.org/2000/svg" xmlns:xlink="http://www.w3.org/1999/xlink" x="0px" y="0px"
	 viewBox="0 0 1728 550.6" style="enable-background:new 0 0 1728 550.6;" xml:space="preserve">
<style type="text/css">
	.st0{fill:none;stroke:#2DD697;stroke-width:0.6901;}
	.st1{fill:#14264D;}
	.st2{clip-path:url(#SVGID_00000080168191671178585600000002274603270493324416_);}
	.st3{clip-path:url(#SVGID_00000044147645505303982770000016921617633722770055_);}
</style>
<path class="st0" d="M1295.3,43.5L1189-8.7v0l-1.1-0.5v-105.3l34.2,16.8l0,0l73.2,35.9v53.4V43.5z"/>
<path class="st0" d="M1410.1-114.5V-9.2l-1.1,0.5v0l-106.4,52.2V-8.4v-53.4L1352-86l-0.2-0.3l0.2,0.3L1410.1-114.5z"/>
<path class="st0" d="M1410.1,211.4l-106.4-52.2l0,0l-1.1-0.5V53.4l34.2,16.8l0,0l73.2,35.9v53.4V211.4z"/>
<path class="st0" d="M1413.8-4.8l107.3,52.7l-14.9,7.3l-92.4,45.3l-107.3-52.6L1413.8-4.8z"/>
<path class="st0" d="M1524.9,53.4v105.3l-1.1,0.5v0l-106.4,52.2v-51.9v-53.4l49.3-24.2l-0.1-0.3l0.1,0.3L1524.9,53.4z"/>
<path class="st0" d="M1180.5,211.4l-106.4-52.2l0,0l-1.1-0.5V53.4l34.2,16.8l0,0l73.2,35.9v53.4V211.4z"/>
<path class="st0" d="M1184.2-4.8l107.3,52.7l-14.9,7.3l-92.4,45.3l-107.3-52.6L1184.2-4.8z"/>
<path class="st0" d="M1295.3,53.4v105.3l-1.1,0.5v0l-106.4,52.2v-51.9v-53.4l49.3-24.2l-0.2-0.3l0.2,0.3L1295.3,53.4z"/>
<path class="st0" d="M1295.3,378.5L1189,326.3v0l-1.1-0.5V220.5l34.2,16.8l0,0l73.2,35.9v53.4V378.5z"/>
<path class="st0" d="M1299,162.4l107.3,52.7l-14.9,7.3l-92.4,45.3L1191.7,215L1299,162.4z"/>
<path class="st0" d="M1410.1,220.5v105.3l-1.1,0.5l0,0l-106.4,52.2v-51.9v-53.4L1352,249l-0.2-0.3l0.2,0.3L1410.1,220.5z"/>
</svg>
