<svg width="225" height="686" viewBox="0 0 225 686" fill="none" xmlns="http://www.w3.org/2000/svg">
<g clip-path="url(#clip0_11_18052)">
<path d="M156.879 301.944L120.698 280.998V411.4L122.01 412.162L233.33 476.606V412.162V346.204L156.879 301.944Z" fill="#14264D" fill-opacity="0.5"/>
<path d="M333.253 284.338L349.428 274.966L236.796 209.77L124.165 274.966L236.796 340.172L333.253 284.338Z" fill="#14264D" fill-opacity="0.5"/>
<path d="M36.1804 92.1735L0 71.2278V201.63L1.31149 202.391L112.632 266.836V202.391V136.434L36.1804 92.1735Z" fill="#14264D" fill-opacity="0.5"/>
<path d="M212.555 74.5675L228.73 65.2061L116.098 0L3.46606 65.2061L116.098 130.402L212.555 74.5675Z" fill="#14264D" fill-opacity="0.5"/>
<path d="M171.159 106.565L119.574 136.434V202.391V266.836L230.884 202.391L232.206 201.63V71.2278L171.159 106.565Z" fill="#14264D" fill-opacity="0.5"/>
<path d="M36.1804 511.338L0 490.402V620.804L1.31149 621.566L112.632 686V621.566V555.598L36.1804 511.338Z" fill="#14264D" fill-opacity="0.5"/>
<path d="M212.555 493.742L228.73 484.37L116.098 419.164L3.46606 484.37L116.098 549.566L212.555 493.742Z" fill="#14264D" fill-opacity="0.5"/>
<path d="M171.16 525.74L119.574 555.598V621.566V686L230.884 621.566L232.206 620.804V490.402L171.16 525.74Z" fill="#14264D" fill-opacity="0.5"/>
</g>
<defs>
<clipPath id="clip0_11_18052">
<rect width="715" height="686" fill="white"/>
</clipPath>
</defs>
</svg>
