<?xml version="1.0" encoding="utf-8"?>
<!-- Generator: Adobe Illustrator 27.6.1, SVG Export Plug-In . SVG Version: 6.00 Build 0)  -->
<svg version="1.1" id="Layer_1" xmlns="http://www.w3.org/2000/svg" xmlns:xlink="http://www.w3.org/1999/xlink" x="0px" y="0px"
	 viewBox="0 0 1728 3042.1" style="enable-background:new 0 0 1728 3042.1;" xml:space="preserve">
<style type="text/css">
	.st0{clip-path:url(#SVGID_00000158010558419442947940000014084864476436375192_);}
	.st1{fill:#14264D;fill-opacity:0.5;}
	.st2{clip-path:url(#SVGID_00000020378869668102344860000002827991465123063196_);}
	.st3{clip-path:url(#SVGID_00000137117428913151797450000010338016240715080639_);}
</style>
<g>
	<g>
		<defs>
			<rect id="SVGID_1_" x="-286.2" y="31.3" width="486.4" height="466.4"/>
		</defs>
		<clipPath id="SVGID_00000084523645485046958280000000067013020884936323_">
			<use xlink:href="#SVGID_1_"  style="overflow:visible;"/>
		</clipPath>
		<g style="clip-path:url(#SVGID_00000084523645485046958280000000067013020884936323_);">
			<path class="st1" d="M23.4,82l11-6.4l-76.6-44.3l-76.6,44.3l76.6,44.3L23.4,82z"/>
			<path class="st1" d="M-4.8,103.8l-35.1,20.3v44.8v43.8l75.7-43.8l0.9-0.5V79.7L-4.8,103.8z"/>
			<path class="st1" d="M66.8,94L42.2,79.7v88.7l0.9,0.5l75.7,43.8v-43.8v-44.8L66.8,94z"/>
			<path class="st1" d="M186.8,82l11-6.4l-76.6-44.3L44.6,75.6l76.6,44.3L186.8,82z"/>
			<path class="st1" d="M158.7,103.8l-35.1,20.3v44.8v43.8l75.7-43.8l0.9-0.5V79.7L158.7,103.8z"/>
			<path class="st1" d="M23.4,366.2l11-6.4l-76.6-44.3l-76.6,44.3l76.6,44.3L23.4,366.2z"/>
			<path class="st1" d="M-4.8,388l-35.1,20.3v44.8V497l75.7-43.8l0.9-0.5V364L-4.8,388z"/>
			<path class="st1" d="M66.2,378.2L41.6,364v88.7l0.9,0.5l75.7,43.8v-43.8v-44.8L66.2,378.2z"/>
			<path class="st1" d="M186.2,366.2l11-6.4l-76.6-44.3L44,359.9l76.6,44.3L186.2,366.2z"/>
			<path class="st1" d="M158,388l-35.1,20.3v44.8V497l75.7-43.8l0.9-0.5V364L158,388z"/>
			<path class="st1" d="M-15.3,236.7l-24.6-14.2v88.7l0.9,0.5l75.7,43.8v-43.8v-44.9L-15.3,236.7z"/>
			<path class="st1" d="M104.7,224.7l11-6.4L39.1,174l-76.6,44.3l76.6,44.3L104.7,224.7z"/>
			<path class="st1" d="M76.5,246.5l-35.1,20.3v44.9v43.8l75.7-43.8l0.9-0.5v-88.7L76.5,246.5z"/>
		</g>
	</g>
</g>
<g>
	<g>
		<defs>
			<rect id="SVGID_00000058572681458152165490000013718523925313150655_" x="-244" y="1433" width="486.4" height="466.4"/>
		</defs>
		<clipPath id="SVGID_00000062910469869887730230000001302025920041564856_">
			<use xlink:href="#SVGID_00000058572681458152165490000013718523925313150655_"  style="overflow:visible;"/>
		</clipPath>
		<g style="clip-path:url(#SVGID_00000062910469869887730230000001302025920041564856_);">
			<path class="st1" d="M65.6,1483.7l11-6.4L0,1433l-76.6,44.3L0,1521.6L65.6,1483.7z"/>
			<path class="st1" d="M37.4,1505.5l-35.1,20.3v44.8v43.8l75.7-43.8l0.9-0.5v-88.7L37.4,1505.5z"/>
			<path class="st1" d="M109,1495.7l-24.6-14.3v88.7l0.9,0.5l75.7,43.8v-43.8v-44.8L109,1495.7z"/>
			<path class="st1" d="M229,1483.7l11-6.4l-76.6-44.3l-76.6,44.3l76.6,44.3L229,1483.7z"/>
			<path class="st1" d="M200.9,1505.5l-35.1,20.3v44.8v43.8l75.7-43.8l0.9-0.5v-88.7L200.9,1505.5z"/>
			<path class="st1" d="M65.6,1767.9l11-6.4L0,1717.2l-76.6,44.3L0,1805.8L65.6,1767.9z"/>
			<path class="st1" d="M37.4,1789.7L2.3,1810v44.8v43.9l75.7-43.8l0.9-0.5v-88.7L37.4,1789.7z"/>
			<path class="st1" d="M108.4,1779.9l-24.6-14.2v88.7l0.9,0.5l75.7,43.8v-43.8v-44.8L108.4,1779.9z"/>
			<path class="st1" d="M228.4,1767.9l11-6.4l-76.6-44.3l-76.6,44.4l76.6,44.3L228.4,1767.9z"/>
			<path class="st1" d="M200.2,1789.7l-35.1,20.3v44.8v43.9l75.7-43.8l0.9-0.5v-88.7L200.2,1789.7z"/>
			<path class="st1" d="M26.9,1638.4l-24.6-14.2v88.7l0.9,0.5l75.7,43.8v-43.8v-44.9L26.9,1638.4z"/>
			<path class="st1" d="M146.9,1626.4l11-6.4l-76.6-44.3L4.7,1620l76.6,44.3L146.9,1626.4z"/>
			<path class="st1" d="M118.7,1648.2l-35.1,20.3v44.9v43.8l75.7-43.8l0.9-0.5v-88.7L118.7,1648.2z"/>
		</g>
	</g>
</g>
<g>
	<g>
		<defs>
			<rect id="SVGID_00000067231892036543895240000013512005038761608106_" x="1589.9" y="586.1" width="527.1" height="505.7"/>
		</defs>
		<clipPath id="SVGID_00000048496847948468438810000010866109633156903852_">
			<use xlink:href="#SVGID_00000067231892036543895240000013512005038761608106_"  style="overflow:visible;"/>
		</clipPath>
		<g style="clip-path:url(#SVGID_00000048496847948468438810000010866109633156903852_);">
			<path class="st1" d="M1705.6,808.8l-26.6-15.5v96.1l0.9,0.6l82.1,47.6V890v-48.7L1705.6,808.8z"/>
			<path class="st1" d="M1835.6,795.8l11.9-6.9l-83-48.1l-83,48.1l83,48.1L1835.6,795.8z"/>
			<path class="st1" d="M1616.6,654l-26.6-15.5v96.1l0.9,0.6l82.1,47.6v-47.6v-48.7L1616.6,654z"/>
			<path class="st1" d="M1746.6,641.1l11.9-6.9l-83-48.1l-83,48.1l83,48.1L1746.6,641.1z"/>
			<path class="st1" d="M1716.1,664.7l-38.1,22v48.7V783l82-47.6l1-0.6v-96.2L1716.1,664.7z"/>
			<path class="st1" d="M1616.6,963.1l-26.6-15.5v96.1l0.9,0.6l82.1,47.5v-47.5v-48.7L1616.6,963.1z"/>
			<path class="st1" d="M1746.6,950.1l11.9-6.9l-83-48.1l-83,48.1l83,48.1L1746.6,950.1z"/>
			<path class="st1" d="M1716.1,973.7l-38.1,22v48.7v47.5l82-47.5l1-0.6v-96.2L1716.1,973.7z"/>
		</g>
	</g>
</g>
</svg>
