<?xml version="1.0" encoding="utf-8"?>
<!-- Generator: Adobe Illustrator 27.6.1, SVG Export Plug-In . SVG Version: 6.00 Build 0)  -->
<svg version="1.1" id="Layer_1" xmlns="http://www.w3.org/2000/svg" xmlns:xlink="http://www.w3.org/1999/xlink" x="0px" y="0px"
	 viewBox="0 0 1728 3042.1" style="enable-background:new 0 0 1728 3042.1;" xml:space="preserve">
<style type="text/css">
	.st0{clip-path:url(#SVGID_00000062888536971142087120000012810122127787126664_);}
	.st1{fill:#14264D;fill-opacity:0.5;}
	.st2{clip-path:url(#SVGID_00000057869355251339191220000008809560453865382816_);}
	.st3{clip-path:url(#SVGID_00000183949229273715304910000015498933546525343167_);}
</style>
<g>
	<defs>
		<rect id="SVGID_1_" x="-286.2" y="31.3" width="486.4" height="466.4"/>
	</defs>
	<clipPath id="SVGID_00000016076103978572198980000005222982956751347900_">
		<use xlink:href="#SVGID_1_"  style="overflow:visible;"/>
	</clipPath>
	<g style="clip-path:url(#SVGID_00000016076103978572198980000005222982956751347900_);">
		<path class="st1" d="M23.4,82l11-6.4l-76.6-44.3l-76.6,44.3l76.6,44.3L23.4,82z"/>
		<path class="st1" d="M-4.8,103.8l-35.1,20.3v44.8v43.8l75.7-43.8l0.9-0.5V79.7L-4.8,103.8z"/>
		<path class="st1" d="M66.8,94L42.2,79.7v88.7l0.9,0.5l75.7,43.8v-43.8v-44.8L66.8,94z"/>
		<path class="st1" d="M186.8,82l11-6.4l-76.6-44.3L44.6,75.6l76.6,44.3L186.8,82z"/>
		<path class="st1" d="M158.7,103.8l-35.1,20.3v44.8v43.8l75.7-43.8l0.9-0.5V79.7L158.7,103.8z"/>
		<path class="st1" d="M23.4,366.2l11-6.4l-76.6-44.3l-76.6,44.3l76.6,44.3L23.4,366.2z"/>
		<path class="st1" d="M-4.8,388l-35.1,20.3v44.8V497l75.7-43.8l0.9-0.5V364L-4.8,388z"/>
		<path class="st1" d="M66.2,378.2L41.6,364v88.7l0.9,0.5l75.7,43.8v-43.8v-44.8L66.2,378.2z"/>
		<path class="st1" d="M186.2,366.2l11-6.4l-76.6-44.3L44,359.9l76.6,44.3L186.2,366.2z"/>
		<path class="st1" d="M158,388l-35.1,20.3v44.8V497l75.7-43.8l0.9-0.5V364L158,388z"/>
		<path class="st1" d="M-15.3,236.7l-24.6-14.2v88.7l0.9,0.5l75.7,43.8v-43.8v-44.9L-15.3,236.7z"/>
		<path class="st1" d="M104.7,224.7l11-6.4L39.1,174l-76.6,44.3l76.6,44.3L104.7,224.7z"/>
		<path class="st1" d="M76.5,246.5l-35.1,20.3v44.9v43.8l75.7-43.8l0.9-0.5v-88.7L76.5,246.5z"/>
	</g>
</g>
<g>
	<defs>
		<rect id="SVGID_00000114073342515411737270000017358682808969307785_" x="-307.9" y="1293.8" width="632.8" height="606.4"/>
	</defs>
	<clipPath id="SVGID_00000032647886697366870720000005191787246583801264_">
		<use xlink:href="#SVGID_00000114073342515411737270000017358682808969307785_"  style="overflow:visible;"/>
	</clipPath>
	<g style="clip-path:url(#SVGID_00000032647886697366870720000005191787246583801264_);">
		<path class="st1" d="M-49.6,1573.4l-45.7,26.4v58.3v57l98.5-57l1.2-0.7v-115.3L-49.6,1573.4z"/>
		<path class="st1" d="M-61.3,1375.3l-32-18.5V1472l1.2,0.7l98.5,57v-57v-58.3L-61.3,1375.3z"/>
		<path class="st1" d="M94.8,1359.7l14.3-8.3l-99.7-57.6l-99.7,57.6l99.7,57.6L94.8,1359.7z"/>
		<path class="st1" d="M58.2,1388l-45.7,26.4v58.3v57l98.5-57l1.2-0.7v-115.3L58.2,1388z"/>
		<path class="st1" d="M151.4,1375.3l-32-18.5V1472l1.2,0.7l98.5,57v-57v-58.3L151.4,1375.3z"/>
		<path class="st1" d="M307.5,1359.7l14.3-8.3l-99.7-57.6l-99.7,57.6l99.7,57.6L307.5,1359.7z"/>
		<path class="st1" d="M270.9,1388l-45.7,26.4v58.3v57l98.5-57l1.2-0.7v-115.3L270.9,1388z"/>
		<path class="st1" d="M-61.3,1744.8l-32-18.5v115.3l1.2,0.7l98.5,57v-57V1784L-61.3,1744.8z"/>
		<path class="st1" d="M94.8,1729.3l14.3-8.3l-99.7-57.6l-99.7,57.6l99.7,57.6L94.8,1729.3z"/>
		<path class="st1" d="M58.2,1757.6L12.5,1784v58.3v57l98.5-57l1.2-0.7v-115.3L58.2,1757.6z"/>
		<path class="st1" d="M150.6,1744.8l-32-18.5v115.3l1.2,0.7l98.5,57v-57V1784L150.6,1744.8z"/>
		<path class="st1" d="M306.7,1729.3l14.3-8.3l-99.7-57.6l-99.7,57.6l99.7,57.6L306.7,1729.3z"/>
		<path class="st1" d="M270,1757.6l-45.7,26.4v58.3v57l98.5-57l1.2-0.7v-115.3L270,1757.6z"/>
		<path class="st1" d="M44.6,1560.9l-32-18.5v115.3l1.2,0.7l98.5,57v-57V1600L44.6,1560.9z"/>
		<path class="st1" d="M200.7,1545.3l14.3-8.3l-99.7-57.6L15.6,1537l99.7,57.6L200.7,1545.3z"/>
		<path class="st1" d="M164,1573.6l-45.7,26.4v58.3v57l98.5-57l1.2-0.7v-115.3L164,1573.6z"/>
	</g>
</g>
<g>
	<defs>
		<rect id="SVGID_00000054970953935295523310000015862078186130314894_" x="1574.5" y="564.6" width="572" height="548.8"/>
	</defs>
	<clipPath id="SVGID_00000156547718801860925330000006382578311411012797_">
		<use xlink:href="#SVGID_00000054970953935295523310000015862078186130314894_"  style="overflow:visible;"/>
	</clipPath>
	<g style="clip-path:url(#SVGID_00000156547718801860925330000006382578311411012797_);">
		<path class="st1" d="M1700,806.2l-28.9-16.8v104.3l1,0.6l89.1,51.6v-51.6v-52.8L1700,806.2z"/>
		<path class="st1" d="M1841.1,792.1l12.9-7.5l-90.1-52.2l-90.1,52.2l90.1,52.2L1841.1,792.1z"/>
		<path class="st1" d="M1603.4,638.3l-28.9-16.8v104.3l1,0.6l89.1,51.6v-51.6v-52.8L1603.4,638.3z"/>
		<path class="st1" d="M1744.5,624.3l12.9-7.5l-90.1-52.2l-90.1,52.2l90.1,52.2L1744.5,624.3z"/>
		<path class="st1" d="M1711.4,649.9l-41.3,23.9v52.8v51.6l89-51.6l1.1-0.6V621.6L1711.4,649.9z"/>
		<path class="st1" d="M1603.4,973.7l-28.9-16.8v104.3l1,0.6l89.1,51.5v-51.5v-52.8L1603.4,973.7z"/>
		<path class="st1" d="M1744.5,959.6l12.9-7.5l-90.1-52.2l-90.1,52.2l90.1,52.2L1744.5,959.6z"/>
		<path class="st1" d="M1711.4,985.2l-41.3,23.9v52.8v51.5l89-51.5l1.1-0.6V956.9L1711.4,985.2z"/>
	</g>
</g>
</svg>
