<svg width="404" height="758" viewBox="0 0 404 758" fill="none" xmlns="http://www.w3.org/2000/svg">
<g clip-path="url(#clip0_12_18259)">
<path d="M-64.1193 349.537L-121.188 382.54V455.42V526.629L1.95375 455.42L3.41615 454.579V310.49L-64.1193 349.537Z" fill="#14264D" fill-opacity="0.5"/>
<path d="M-78.7088 101.848L-118.735 78.7036V222.792L-117.273 223.634L5.86884 294.842V223.634V150.754L-78.7088 101.848Z" fill="#14264D" fill-opacity="0.5"/>
<path d="M116.413 82.3938L134.319 72.0499L9.71485 0L-114.889 72.0499L9.71485 144.088L116.413 82.3938Z" fill="#14264D" fill-opacity="0.5"/>
<path d="M70.6177 117.75L13.5494 150.754V223.634V294.842L136.702 223.634L138.153 222.792V78.7036L70.6177 117.75Z" fill="#14264D" fill-opacity="0.5"/>
<path d="M187.138 101.848L147.112 78.7036V222.792L148.563 223.634L271.716 294.842V223.634V150.754L187.138 101.848Z" fill="#14264D" fill-opacity="0.5"/>
<path d="M382.26 82.3938L400.154 72.0499L275.55 0L150.946 72.0499L275.55 144.088L382.26 82.3938Z" fill="#14264D" fill-opacity="0.5"/>
<path d="M336.465 117.75L279.396 150.754V223.634V294.842L402.538 223.634L404 222.792V78.7036L336.465 117.75Z" fill="#14264D" fill-opacity="0.5"/>
<path d="M-78.7088 563.795L-118.735 540.651V684.739L-117.273 685.581L5.86884 756.789V685.581V612.701L-78.7088 563.795Z" fill="#14264D" fill-opacity="0.5"/>
<path d="M116.413 544.341L134.319 533.997L9.71485 461.947L-114.889 533.997L9.71485 606.036L116.413 544.341Z" fill="#14264D" fill-opacity="0.5"/>
<path d="M70.6177 579.697L13.5494 612.701V685.581V756.789L136.702 685.581L138.153 684.739V540.651L70.6177 579.697Z" fill="#14264D" fill-opacity="0.5"/>
<path d="M186.102 563.795L146.076 540.651V684.739L147.538 685.581L270.679 756.789V685.581V612.701L186.102 563.795Z" fill="#14264D" fill-opacity="0.5"/>
<path d="M381.223 544.341L399.118 533.997L274.525 461.947L149.922 533.997L274.525 606.036L381.223 544.341Z" fill="#14264D" fill-opacity="0.5"/>
<path d="M335.428 579.697L278.36 612.701V685.581V756.789L401.513 685.581L402.964 684.739V540.651L335.428 579.697Z" fill="#14264D" fill-opacity="0.5"/>
<path d="M53.5869 333.83L13.5608 310.698V454.786L15.0232 455.628L138.165 526.825V455.628V382.736L53.5869 333.83Z" fill="#14264D" fill-opacity="0.5"/>
<path d="M248.709 314.388L266.615 304.033L142.011 231.983L17.4069 304.033L142.011 376.071L248.709 314.388Z" fill="#14264D" fill-opacity="0.5"/>
<path d="M202.913 349.744L145.845 382.736V455.628V526.825L268.998 455.628L270.449 454.786V310.698L202.913 349.744Z" fill="#14264D" fill-opacity="0.5"/>
</g>
<defs>
<clipPath id="clip0_12_18259">
<rect width="791" height="758" fill="white" transform="translate(-387)"/>
</clipPath>
</defs>
</svg>
