<svg width="261" height="583" viewBox="0 0 261 583" fill="none" xmlns="http://www.w3.org/2000/svg">
<g clip-path="url(#clip0_11_17765)">
<path d="M39.9469 63.3715L53.7102 55.4157L-42.0662 0L-137.843 55.4157L-42.0662 110.822L39.9469 63.3715Z" fill="#14264D" fill-opacity="0.5"/>
<path d="M4.74666 90.5649L-39.1188 115.949V172.003V226.771L55.5424 172.003L56.6576 171.356V60.5333L4.74666 90.5649Z" fill="#14264D" fill-opacity="0.5"/>
<path d="M94.3096 78.3341L63.5436 60.5333V171.356L64.6588 172.003L159.32 226.771V172.003V115.949L94.3096 78.3341Z" fill="#14264D" fill-opacity="0.5"/>
<path d="M244.289 63.3715L258.044 55.4157L162.267 0L66.491 55.4157L162.267 110.822L244.289 63.3715Z" fill="#14264D" fill-opacity="0.5"/>
<path d="M209.089 90.5649L165.224 115.949V172.003V226.771L259.876 172.003L261 171.356V60.5333L209.089 90.5649Z" fill="#14264D" fill-opacity="0.5"/>
<path d="M39.9469 418.669L53.7102 410.713L-42.0662 355.297L-137.843 410.713L-42.0662 466.12L39.9469 418.669Z" fill="#14264D" fill-opacity="0.5"/>
<path d="M4.74666 445.862L-39.1188 471.246V527.3V582.069L55.5424 527.3L56.6576 526.653V415.831L4.74666 445.862Z" fill="#14264D" fill-opacity="0.5"/>
<path d="M93.513 433.631L62.747 415.831V526.653L63.8711 527.3L158.523 582.069V527.3V471.246L93.513 433.631Z" fill="#14264D" fill-opacity="0.5"/>
<path d="M243.493 418.669L257.247 410.713L161.48 355.297L65.7032 410.713L161.48 466.12L243.493 418.669Z" fill="#14264D" fill-opacity="0.5"/>
<path d="M208.292 445.862L164.427 471.246V527.3V582.069L259.088 527.3L260.203 526.653V415.831L208.292 445.862Z" fill="#14264D" fill-opacity="0.5"/>
<path d="M-8.34399 256.759L-39.11 238.967V349.789L-37.9859 350.437L56.6664 405.196V350.437V294.374L-8.34399 256.759Z" fill="#14264D" fill-opacity="0.5"/>
<path d="M141.636 241.805L155.399 233.84L59.6227 178.425L-36.1537 233.84L59.6227 289.247L141.636 241.805Z" fill="#14264D" fill-opacity="0.5"/>
<path d="M106.435 268.998L62.57 294.374V350.437V405.196L157.231 350.437L158.346 349.789V238.967L106.435 268.998Z" fill="#14264D" fill-opacity="0.5"/>
</g>
<defs>
<clipPath id="clip0_11_17765">
<rect width="608" height="583" fill="white" transform="translate(-347)"/>
</clipPath>
</defs>
</svg>
