<svg width="362" height="389" viewBox="0 0 362 389" fill="none" xmlns="http://www.w3.org/2000/svg">
<g clip-path="url(#clip0_12_18539)">
<path d="M88.9558 78.2632L105.956 68.4379L-12.3466 0L-130.649 68.4379L-12.3466 136.865L88.9558 78.2632Z" fill="#14264D"/>
<path d="M45.4765 111.847L-8.70599 143.196V212.423V280.061L108.219 212.423L109.597 211.623V74.7583L45.4765 111.847Z" fill="#14264D"/>
<path d="M156.104 96.7421L118.102 74.7583V211.623L119.48 212.423L236.405 280.061V212.423V143.196L156.104 96.7421Z" fill="#14264D"/>
<path d="M341.359 78.2632L358.349 68.4379L240.046 0L121.743 68.4379L240.046 136.865L341.359 78.2632Z" fill="#14264D"/>
<path d="M297.88 111.847L243.697 143.196V212.423V280.061L360.612 212.423L362 211.623V74.7583L297.88 111.847Z" fill="#14264D"/>
</g>
<defs>
<clipPath id="clip0_12_18539">
<rect width="751" height="720" fill="white" transform="translate(-389)"/>
</clipPath>
</defs>
</svg>
