<svg width="195" height="637" viewBox="0 0 195 637" fill="none" xmlns="http://www.w3.org/2000/svg">
<g clip-path="url(#clip0_12_18498)">
<path d="M160.828 308.986L123.737 287.552V420.995L125.082 421.775L239.204 487.722V421.775V354.279L160.828 308.986Z" fill="#14264D"/>
<path d="M341.643 290.969L358.225 281.379L242.758 214.663L127.29 281.379L242.758 348.106L341.643 290.969Z" fill="#14264D"/>
<path d="M37.0912 94.3234L0 72.8892V206.332L1.3445 207.112L115.467 273.059V207.112V139.616L37.0912 94.3234Z" fill="#14264D"/>
<path d="M217.906 76.3067L234.488 66.7269L119.02 0L3.55322 66.7269L119.02 133.443L217.906 76.3067Z" fill="#14264D"/>
<path d="M175.468 109.051L122.584 139.616V207.112V273.059L236.697 207.112L238.052 206.332V72.8892L175.468 109.051Z" fill="#14264D"/>
<path d="M37.0912 523.264L0 501.841V635.284L1.3445 636.064L115.467 702V636.064V568.557L37.0912 523.264Z" fill="#14264D"/>
<path d="M217.906 505.258L234.488 495.668L119.02 428.941L3.55322 495.668L119.02 562.384L217.906 505.258Z" fill="#14264D"/>
<path d="M175.469 538.002L122.585 568.557V636.064V702L236.697 636.064L238.052 635.284V501.841L175.469 538.002Z" fill="#14264D"/>
</g>
<defs>
<clipPath id="clip0_12_18498">
<rect width="733" height="702" fill="white"/>
</clipPath>
</defs>
</svg>
