<?xml version="1.0" encoding="utf-8"?>
<!-- Generator: Adobe Illustrator 27.6.1, SVG Export Plug-In . SVG Version: 6.00 Build 0)  -->
<svg version="1.1" id="Layer_1" xmlns="http://www.w3.org/2000/svg" xmlns:xlink="http://www.w3.org/1999/xlink" x="0px" y="0px"
	 viewBox="0 0 1728 1174.9" style="enable-background:new 0 0 1728 1174.9;" xml:space="preserve">
<style type="text/css">
	.st0{clip-path:url(#SVGID_00000163045349470279589080000007662756029955065269_);}
	.st1{fill:#60EEF1;}
	.st2{clip-path:url(#SVGID_00000109019418909078835130000013041095007593929663_);}
	.st3{clip-path:url(#SVGID_00000008843975786856215810000001715487830962238116_);}
	.st4{clip-path:url(#SVGID_00000115515750018426193260000009791040706038913179_);}
	.st5{clip-path:url(#SVGID_00000026877819717642158980000007380165581790522758_);}
	.st6{clip-path:url(#SVGID_00000016759597666741663970000008325850362397822645_);}
	.st7{clip-path:url(#SVGID_00000137812143050392381280000009270128176021903258_);}
	.st8{clip-path:url(#SVGID_00000109025513232810857580000007183949693441306262_);}
	.st9{clip-path:url(#SVGID_00000034772732463589452360000014483958452730368937_);}
	.st10{clip-path:url(#SVGID_00000178178462857937606250000016219381790396347058_);}
	.st11{clip-path:url(#SVGID_00000092426310728461752120000018386680720362675868_);}
	.st12{clip-path:url(#SVGID_00000094601061116006565430000011404816520577796233_);}
	.st13{clip-path:url(#SVGID_00000119804603083118487460000013526852285603930508_);}
	.st14{clip-path:url(#SVGID_00000165226814213866147600000006908148082774940580_);}
	.st15{clip-path:url(#SVGID_00000007393511529136050030000010498623996801741990_);}
	.st16{clip-path:url(#SVGID_00000161612745772297698810000013113682236747134644_);}
	.st17{clip-path:url(#SVGID_00000126283905916566952790000013415197427805138830_);}
	.st18{clip-path:url(#SVGID_00000104680496730138647100000015956788939893992883_);}
	.st19{clip-path:url(#SVGID_00000097472947176993053190000011880411553681843861_);}
	.st20{clip-path:url(#SVGID_00000051385116704653908470000018251460673691310726_);}
	.st21{clip-path:url(#SVGID_00000178893747149251375370000015691936244259608468_);}
	.st22{clip-path:url(#SVGID_00000153681236371517095990000017150227756069469828_);}
	.st23{clip-path:url(#SVGID_00000017479351040965733680000007121358661273725576_);}
	.st24{clip-path:url(#SVGID_00000027574098911034310340000004691751384078534288_);}
	.st25{clip-path:url(#SVGID_00000017502705844909040610000001715083813885553334_);}
</style>
<g>
	<defs>
		<rect id="SVGID_00000116225444611919617750000012930102690618088379_" x="1600.6" y="-71.2" width="255.3" height="292.3"/>
	</defs>
	<clipPath id="SVGID_00000150784186756814719900000000753918174221345687_">
		<use xlink:href="#SVGID_00000116225444611919617750000012930102690618088379_"  style="overflow:visible;"/>
	</clipPath>
	<g style="clip-path:url(#SVGID_00000150784186756814719900000000753918174221345687_);">
		<path class="st1" d="M1725,221.1l-124.4-71.7V6.1L1725,77.8V221.1L1725,221.1z M1601.7,148.8l1.2,0.7l121.1,69.8V78.4L1601.7,7.9
			V148.8z"/>
		<path class="st1" d="M1728.3,72.1L1728,72L1603.9,0.5l124.4-71.7l0.3,0.2l124.1,71.5L1728.3,72.1z M1606,0.5l122.2,70.4
			l105.3-60.7l16.9-9.8L1728.3-70L1606,0.5z"/>
		<path class="st1" d="M1728.3,72.1L1728,72L1604.7,0.9l0.5-0.9l124,71.4L1728.3,72.1z"/>
	</g>
</g>
<g>
	<defs>
		<rect id="SVGID_00000137094131240265785840000010412003424336701605_" x="1332.2" y="387.7" width="255.3" height="292.3"/>
	</defs>
	<clipPath id="SVGID_00000096052798964127977340000017213363200243224454_">
		<use xlink:href="#SVGID_00000137094131240265785840000010412003424336701605_"  style="overflow:visible;"/>
	</clipPath>
	<g style="clip-path:url(#SVGID_00000096052798964127977340000017213363200243224454_);">
		<path class="st1" d="M1456.6,680l-124.4-71.7V465l124.4,71.7V680L1456.6,680z M1333.3,607.7l1.2,0.7l121.1,69.8V537.3l-122.2-70.4
			V607.7z"/>
		<path class="st1" d="M1459.9,531l-0.3-0.2l-124.1-71.5l124.4-71.7l0.3,0.2l124.1,71.5L1459.9,531z M1337.6,459.3l122.2,70.4
			l105.3-60.7l16.9-9.8l-122.2-70.4L1337.6,459.3z"/>
		<path class="st1" d="M1459.9,531l-0.3-0.2l-123.3-71l0.5-0.9l124,71.4L1459.9,531z"/>
		<path class="st1" d="M1463.2,680V536.6l0.3-0.2l124.1-71.5v143.3l-1.7,1L1463.2,680z M1464.2,537.3v140.9l122.2-70.4V466.8
			L1464.2,537.3z"/>
	</g>
</g>
<g>
	<defs>
		<rect id="SVGID_00000082341703412740787190000015634512390915000222_" x="1596.8" y="387.7" width="255.3" height="292.3"/>
	</defs>
	<clipPath id="SVGID_00000171686613656783123340000007171961894568339895_">
		<use xlink:href="#SVGID_00000082341703412740787190000015634512390915000222_"  style="overflow:visible;"/>
	</clipPath>
	<g style="clip-path:url(#SVGID_00000171686613656783123340000007171961894568339895_);">
		<path class="st1" d="M1721.1,680l-124.4-71.7V465l124.4,71.7V680L1721.1,680z M1597.8,607.7l1.2,0.7l121.1,69.8V537.3l-122.2-70.4
			V607.7z"/>
		<path class="st1" d="M1724.4,531l-0.3-0.2L1600,459.3l124.4-71.7l0.3,0.2l124.1,71.5L1724.4,531z M1602.2,459.3l122.2,70.4
			l105.3-60.7l16.9-9.8l-122.2-70.4L1602.2,459.3z"/>
		<path class="st1" d="M1724.5,531l-0.3-0.2l-123.3-71l0.5-0.9l124,71.4L1724.5,531z"/>
		<path class="st1" d="M1727.7,680V536.6l0.3-0.2l124.1-71.5v143.3l-1.7,1L1727.7,680z M1728.7,537.3v140.9l122.2-70.4V466.8
			L1728.7,537.3z"/>
	</g>
</g>
<g>
	<g>
		<defs>
			<rect id="SVGID_00000100365134024847790390000004083393561023377854_" x="1463.4" y="156.6" width="255.3" height="292.3"/>
		</defs>
		<clipPath id="SVGID_00000139288104650535074860000007486157435035192228_">
			<use xlink:href="#SVGID_00000100365134024847790390000004083393561023377854_"  style="overflow:visible;"/>
		</clipPath>
		<g style="clip-path:url(#SVGID_00000139288104650535074860000007486157435035192228_);">
			<path class="st1" d="M1587.7,448.9l-124.4-71.7V233.9l124.4,71.7V448.9L1587.7,448.9z M1464.4,376.6l1.2,0.7l121.1,69.8V306.2
				l-122.2-70.4V376.6z"/>
			<path class="st1" d="M1591,299.9l-0.3-0.2l-124.1-71.5l124.4-71.7l0.3,0.2l124.1,71.5L1591,299.9z M1468.8,228.3l122.2,70.4
				l105.3-60.7l16.9-9.8L1591,157.8L1468.8,228.3z"/>
			<path class="st1" d="M1591,300l-0.3-0.2l-123.3-71l0.5-0.9l124,71.4L1591,300z"/>
			<path class="st1" d="M1594.3,448.9V305.6l0.3-0.2l124.1-71.5v143.3l-1.7,1L1594.3,448.9z M1595.3,306.2v140.9l122.2-70.4V235.8
				L1595.3,306.2z"/>
		</g>
	</g>
</g>
<g>
	<defs>
		<rect id="SVGID_00000083792908764639882520000015449952599916874903_" x="1598.3" y="845" width="255.3" height="292.3"/>
	</defs>
	<clipPath id="SVGID_00000108297161481116877070000017537671172106500009_">
		<use xlink:href="#SVGID_00000083792908764639882520000015449952599916874903_"  style="overflow:visible;"/>
	</clipPath>
	<g style="clip-path:url(#SVGID_00000108297161481116877070000017537671172106500009_);">
		<path class="st1" d="M1722.7,1137.3l-124.4-71.7V922.3l124.4,71.7V1137.3L1722.7,1137.3z M1599.4,1065l1.2,0.7l121.1,69.8V994.6
			l-122.2-70.4V1065z"/>
		<path class="st1" d="M1726,988.3l-0.3-0.2l-124.1-71.5L1726,845l0.3,0.2l124.1,71.5L1726,988.3z M1603.7,916.7l122.2,70.4
			l105.3-60.7l16.9-9.8L1726,846.2L1603.7,916.7z"/>
		<path class="st1" d="M1726,988.4l-0.3-0.2l-123.3-71l0.5-0.9l124,71.5L1726,988.4z"/>
	</g>
</g>
<g>
	<defs>
		<rect id="SVGID_00000142149229347947915600000007946633619539120557_" x="1463.4" y="617.5" width="255.3" height="292.3"/>
	</defs>
	<clipPath id="SVGID_00000098213838876502934680000002257501658869475469_">
		<use xlink:href="#SVGID_00000142149229347947915600000007946633619539120557_"  style="overflow:visible;"/>
	</clipPath>
	<g style="clip-path:url(#SVGID_00000098213838876502934680000002257501658869475469_);">
		<path class="st1" d="M1587.7,909.8l-124.4-71.7V694.8l124.4,71.7V909.8L1587.7,909.8z M1464.4,837.5l1.2,0.7l121.1,69.8V767.1
			l-122.2-70.4V837.5z"/>
		<path class="st1" d="M1591,760.8l-0.3-0.2l-124.1-71.5l124.4-71.7l0.3,0.2l124.1,71.5L1591,760.8z M1468.8,689.2l122.2,70.4
			l105.3-60.7l16.9-9.8L1591,618.7L1468.8,689.2z"/>
		<path class="st1" d="M1591,760.8l-0.3-0.2l-123.3-71l0.5-0.9l124,71.4L1591,760.8z"/>
		<path class="st1" d="M1594.3,909.8V766.5l0.3-0.2l124.1-71.5v143.3l-1.7,1L1594.3,909.8z M1595.3,767.1V908l122.2-70.4V696.7
			L1595.3,767.1z"/>
	</g>
</g>
</svg>
