<?xml version="1.0" encoding="utf-8"?>
<!-- Generator: Adobe Illustrator 27.6.1, SVG Export Plug-In . SVG Version: 6.00 Build 0)  -->
<svg version="1.1" id="Layer_1" xmlns="http://www.w3.org/2000/svg" xmlns:xlink="http://www.w3.org/1999/xlink" x="0px" y="0px"
	 viewBox="0 0 1728 638.1" style="enable-background:new 0 0 1728 638.1;" xml:space="preserve">
<style type="text/css">
	.st0{clip-path:url(#SVGID_00000176024176406489677170000001992423929832659607_);}
	.st1{fill:#60EEF1;}
	.st2{clip-path:url(#SVGID_00000009553237988198079440000012293005436106209670_);}
	.st3{clip-path:url(#SVGID_00000131333167201692639760000015496558424180156069_);}
	.st4{clip-path:url(#SVGID_00000080183260287560036760000009230821341362890930_);}
	.st5{clip-path:url(#SVGID_00000054230871956560508000000013489751244044459710_);}
	.st6{clip-path:url(#SVGID_00000039093695330761972000000004856544677176402620_);}
	.st7{clip-path:url(#SVGID_00000050626321823458767670000017657553777024587656_);}
	.st8{clip-path:url(#SVGID_00000181048291746036080530000002899316827982017714_);}
	.st9{clip-path:url(#SVGID_00000037684814438690373060000002473524249120939707_);}
	.st10{clip-path:url(#SVGID_00000011711583664116622640000010477558750318290853_);}
	.st11{clip-path:url(#SVGID_00000166671026112860480930000016782670876250758821_);}
	.st12{clip-path:url(#SVGID_00000041280874427964425590000008776379347168268732_);}
	.st13{clip-path:url(#SVGID_00000148645371027447791840000017714055195267442353_);}
	.st14{clip-path:url(#SVGID_00000005982729265975027680000013703207305110281143_);}
	.st15{clip-path:url(#SVGID_00000170960254679033125410000001044832160376602786_);}
	.st16{clip-path:url(#SVGID_00000017491517446441938640000016381697462047226537_);}
	.st17{clip-path:url(#SVGID_00000046304835814243747610000010443168755751933585_);}
	.st18{clip-path:url(#SVGID_00000029730028556019869150000000776822698928594097_);}
	.st19{clip-path:url(#SVGID_00000158742571551652199000000004096820727385565874_);}
	.st20{clip-path:url(#SVGID_00000083051995788866992160000002864763286025228725_);}
	.st21{clip-path:url(#SVGID_00000153669617407445037770000007711856302035825799_);}
	.st22{clip-path:url(#SVGID_00000084524135649754492050000012138675723387167644_);}
	.st23{clip-path:url(#SVGID_00000057114879456504738740000018430893306213979794_);}
	.st24{clip-path:url(#SVGID_00000047039430784805489650000006914539075097481874_);}
	.st25{clip-path:url(#SVGID_00000169547890324034983810000006740302022252772484_);}
</style>
<g>
	<defs>
		<rect id="SVGID_1_" x="1593.4" y="87.5" width="269.1" height="308.2"/>
	</defs>
	<clipPath id="SVGID_00000176031401557138919210000011184029786980719781_">
		<use xlink:href="#SVGID_1_"  style="overflow:visible;"/>
	</clipPath>
	<g style="clip-path:url(#SVGID_00000176031401557138919210000011184029786980719781_);">
		<path class="st1" d="M1724.6,395.6l-131.1-75.6V169l131.1,75.6V395.6L1724.6,395.6z M1594.5,319.4l1.2,0.7l127.6,73.6V245.2
			l-128.9-74.3V319.4z"/>
		<path class="st1" d="M1728,238.6l-0.3-0.2L1596.9,163L1728,87.5l0.3,0.2l130.9,75.4L1728,238.6z M1599.1,163l128.9,74.3l111-64
			l17.8-10.3L1728,88.8L1599.1,163z"/>
		<path class="st1" d="M1728,238.6l-0.3-0.2l-130-74.9l0.6-1l130.7,75.3L1728,238.6z"/>
	</g>
</g>
<g>
	<defs>
		<rect id="SVGID_00000060746879415463646030000001207380724035090819_" x="1456.8" y="329" width="269.1" height="308.2"/>
	</defs>
	<clipPath id="SVGID_00000107555205974115210980000005040841296275774636_">
		<use xlink:href="#SVGID_00000060746879415463646030000001207380724035090819_"  style="overflow:visible;"/>
	</clipPath>
	<g style="clip-path:url(#SVGID_00000107555205974115210980000005040841296275774636_);">
		<path class="st1" d="M1587.9,637.1l-131.1-75.6V410.5l131.1,75.6V637.1L1587.9,637.1z M1457.9,560.9l1.2,0.7l127.6,73.5V486.7
			l-128.9-74.3V560.9z"/>
		<path class="st1" d="M1591.4,480.1l-0.3-0.2l-130.9-75.4l131.1-75.6l0.3,0.2l130.9,75.4L1591.4,480.1z M1462.5,404.5l128.9,74.3
			l111-64l17.8-10.3l-128.9-74.3L1462.5,404.5z"/>
		<path class="st1" d="M1591.4,480.1l-0.3-0.2l-130-74.9l0.6-1l130.7,75.3L1591.4,480.1z"/>
		<path class="st1" d="M1594.8,637.1V486l0.3-0.2l130.9-75.4v151.1l-1.8,1L1594.8,637.1z M1596,486.7v148.5l128.9-74.3V412.4
			L1596,486.7z"/>
	</g>
</g>
</svg>
