<svg width="1728" height="5491" viewBox="0 0 1728 5491" fill="none" xmlns="http://www.w3.org/2000/svg">
<g clip-path="url(#clip0_651_386)">
<path d="M1735.83 5228.61L1593.88 5146.82V4983.24L1735.83 5065.04V5228.62V5228.61ZM1595.09 5146.12L1596.43 5146.88L1734.61 5226.5V5065.72L1595.09 4985.34V5146.12Z" fill="#60EEF1"/>
<path d="M1739.56 5058.59L1739.26 5058.41L1597.61 4976.79L1739.56 4895L1739.86 4895.18L1881.51 4976.79L1739.56 5058.59ZM1600.04 4976.79L1739.56 5057.19L1859.77 4987.92L1879.08 4976.79L1739.56 4896.4L1600.04 4976.79Z" fill="#60EEF1"/>
<path d="M1739.6 5058.61L1739.25 5058.41L1598.53 4977.32L1599.13 4976.27L1740.66 5057.82L1739.6 5058.61Z" fill="#60EEF1"/>
</g>
<g clip-path="url(#clip1_651_386)">
<path d="M1587.95 5490.04L1446 5408.25V5244.67L1587.95 5326.47V5490.05V5490.04ZM1447.21 5407.55L1448.55 5408.32L1586.73 5487.93V5327.16L1447.21 5246.77V5407.55Z" fill="#60EEF1"/>
<path d="M1591.68 5320.02L1591.38 5319.84L1449.73 5238.22L1591.68 5156.43L1591.98 5156.61L1733.63 5238.22L1591.68 5320.02ZM1452.16 5238.22L1591.68 5318.62L1711.89 5249.35L1731.2 5238.22L1591.68 5157.83L1452.16 5238.22Z" fill="#60EEF1"/>
<path d="M1591.72 5320.04L1591.37 5319.84L1450.65 5238.75L1451.25 5237.7L1592.78 5319.25L1591.72 5320.04Z" fill="#60EEF1"/>
<path d="M1595.41 5490.04V5326.46L1595.71 5326.28L1737.36 5244.66V5408.25L1735.41 5409.37L1595.41 5490.04ZM1596.63 5327.17V5487.94L1736.15 5407.55V5246.77L1596.63 5327.17Z" fill="#60EEF1"/>
</g>
<g clip-path="url(#clip2_651_386)">
<path d="M-11.3658 3640.53L-11.6922 3640.34L-165.416 3551.77L-11.3658 3463L-11.0394 3463.19L142.685 3551.77L-11.3658 3640.53ZM-162.781 3551.77L-11.3658 3639.01L119.097 3563.85L140.049 3551.77L-11.3658 3464.52L-162.781 3551.77Z" fill="#60EEF1"/>
<path d="M-7.31567 3825.06V3647.52L-6.98924 3647.33L146.735 3558.75V3736.29L144.619 3737.51L-7.31567 3825.06ZM-5.99785 3648.29V3822.77L145.417 3735.53V3561.05L-5.99785 3648.29Z" fill="#60EEF1"/>
</g>
<g clip-path="url(#clip3_651_386)">
<path d="M149.849 4107.82L-4.20117 4019.05V3841.53L149.849 3930.3V4107.83V4107.82ZM-2.88336 4018.29L-1.43257 4019.13L148.531 4105.53V3931.05L-2.88336 3843.81V4018.29Z" fill="#60EEF1"/>
<path d="M153.899 3923.3L153.573 3923.11L-0.151001 3834.53L153.899 3745.77L154.226 3745.96L307.95 3834.53L153.899 3923.3ZM2.48461 3834.53L153.899 3921.78L284.362 3846.61L305.314 3834.53L153.899 3747.29L2.48461 3834.53Z" fill="#60EEF1"/>
<path d="M153.948 3923.32L153.561 3923.11L0.840332 3835.1L1.49319 3833.97L155.096 3922.47L153.948 3923.32Z" fill="#60EEF1"/>
<path d="M157.95 4107.82V3930.29L158.276 3930.09L312 3841.52V4019.05L309.884 4020.27L157.95 4107.82ZM159.267 3931.06V4105.54L310.682 4018.29V3843.81L159.267 3931.06Z" fill="#60EEF1"/>
</g>
<g clip-path="url(#clip4_651_386)">
<path d="M174.26 2029L13 1936.08V1750.25L174.26 1843.17V2029.01V2029ZM14.3795 1935.28L15.8982 1936.15L172.881 2026.6V1843.95L14.3795 1752.63V1935.28Z" fill="#60EEF1"/>
<path d="M178.5 1835.84L178.158 1835.64L17.2397 1742.92L178.5 1650L178.842 1650.2L339.76 1742.92L178.5 1835.84ZM19.9987 1742.92L178.5 1834.25L315.069 1755.56L337.001 1742.92L178.5 1651.59L19.9987 1742.92Z" fill="#60EEF1"/>
<path d="M178.551 1835.87L178.146 1835.64L18.2775 1743.52L18.9609 1742.33L179.753 1834.97L178.551 1835.87Z" fill="#60EEF1"/>
<path d="M182.74 2029V1843.16L183.081 1842.95L344 1750.23V1936.08L341.785 1937.35L182.74 2029ZM184.119 1843.96V2026.61L342.621 1935.28V1752.63L184.119 1843.96Z" fill="#60EEF1"/>
</g>
<g clip-path="url(#clip5_651_386)">
<path d="M343.26 2325L182 2232.08V2046.25L343.26 2139.17V2325.01V2325ZM183.379 2231.28L184.898 2232.15L341.881 2322.6V2139.95L183.379 2048.63V2231.28Z" fill="#60EEF1"/>
<path d="M347.5 2131.84L347.158 2131.64L186.24 2038.92L347.5 1946L347.842 1946.2L508.76 2038.92L347.5 2131.84ZM188.999 2038.92L347.5 2130.25L484.069 2051.56L506.001 2038.92L347.5 1947.59L188.999 2038.92Z" fill="#60EEF1"/>
<path d="M347.551 2131.87L347.146 2131.64L187.277 2039.52L187.961 2038.33L348.753 2130.97L347.551 2131.87Z" fill="#60EEF1"/>
<path d="M351.74 2325V2139.16L352.081 2138.95L513 2046.23V2232.08L510.785 2233.35L351.74 2325ZM353.119 2139.96V2322.61L511.621 2231.28V2048.63L353.119 2139.96Z" fill="#60EEF1"/>
</g>
<g clip-path="url(#clip6_651_386)">
<path d="M13.2603 2325L-148 2232.08V2046.25L13.2603 2139.17V2325.01V2325ZM-146.621 2231.28L-145.102 2232.15L11.8808 2322.6V2139.95L-146.621 2048.63V2231.28Z" fill="#60EEF1"/>
<path d="M17.5 2131.84L17.1583 2131.64L-143.76 2038.92L17.5 1946L17.8417 1946.2L178.76 2038.92L17.5 2131.84ZM-141.001 2038.92L17.5 2130.25L154.069 2051.56L176.001 2038.92L17.5 1947.59L-141.001 2038.92Z" fill="#60EEF1"/>
<path d="M17.5506 2131.87L17.1456 2131.64L-142.723 2039.52L-142.039 2038.33L18.7529 2130.97L17.5506 2131.87Z" fill="#60EEF1"/>
<path d="M21.7397 2325V2139.16L22.0814 2138.95L183 2046.23V2232.08L180.785 2233.35L21.7397 2325ZM23.1192 2139.96V2322.61L181.621 2231.28V2048.63L23.1192 2139.96Z" fill="#60EEF1"/>
</g>
<g clip-path="url(#clip7_651_386)">
<path d="M13.2603 1730L-148 1637.08V1451.25L13.2603 1544.17V1730.01V1730ZM-146.621 1636.28L-145.102 1637.15L11.8808 1727.6V1544.95L-146.621 1453.63V1636.28Z" fill="#60EEF1"/>
<path d="M17.5 1536.84L17.1583 1536.64L-143.76 1443.92L17.5 1351L17.8417 1351.2L178.76 1443.92L17.5 1536.84ZM-141.001 1443.92L17.5 1535.25L154.069 1456.56L176.001 1443.92L17.5 1352.59L-141.001 1443.92Z" fill="#60EEF1"/>
<path d="M17.5506 1536.87L17.1456 1536.64L-142.723 1444.52L-142.039 1443.33L18.7529 1535.97L17.5506 1536.87Z" fill="#60EEF1"/>
<path d="M21.7397 1730V1544.16L22.0814 1543.95L183 1451.23V1637.08L180.785 1638.35L21.7397 1730ZM23.1192 1544.96V1727.61L181.621 1636.28V1453.63L23.1192 1544.96Z" fill="#60EEF1"/>
</g>
<g clip-path="url(#clip8_651_386)">
<path d="M181.26 2620L20 2527.08V2341.25L181.26 2434.17V2620.01V2620ZM21.3795 2526.28L22.8982 2527.15L179.881 2617.6V2434.95L21.3795 2343.63V2526.28Z" fill="#60EEF1"/>
<path d="M185.5 2426.84L185.158 2426.64L24.2397 2333.92L185.5 2241L185.842 2241.2L346.76 2333.92L185.5 2426.84ZM26.9987 2333.92L185.5 2425.25L322.069 2346.56L344.001 2333.92L185.5 2242.59L26.9987 2333.92Z" fill="#60EEF1"/>
<path d="M185.551 2426.87L185.146 2426.64L25.2775 2334.52L25.9609 2333.33L186.753 2425.97L185.551 2426.87Z" fill="#60EEF1"/>
<path d="M189.74 2620V2434.16L190.081 2433.95L351 2341.23V2527.08L348.785 2528.35L189.74 2620ZM191.119 2434.96V2617.61L349.621 2526.28V2343.63L191.119 2434.96Z" fill="#60EEF1"/>
</g>
<g clip-path="url(#clip9_651_386)">
<path d="M1715.81 341.689L1570.53 257.971V90.5483L1715.81 174.266V341.7V341.689ZM1571.77 257.255L1573.14 258.04L1714.57 339.527V174.971L1571.77 92.699V257.255Z" fill="#60EEF1"/>
<path d="M1719.63 167.666L1719.33 167.484L1574.35 83.9484L1719.63 0.23114L1719.94 0.413208L1864.92 83.9484L1719.63 167.666ZM1576.83 83.9484L1719.63 166.232L1842.68 95.339L1862.44 83.9484L1719.63 1.66493L1576.83 83.9484Z" fill="#60EEF1"/>
<path d="M1719.68 167.688L1719.32 167.484L1575.28 84.4832L1575.9 83.4135L1720.76 166.88L1719.68 167.688Z" fill="#60EEF1"/>
<path d="M1723.45 341.689V174.254L1723.76 174.072L1868.74 90.537V257.971L1866.75 259.121L1723.45 341.689ZM1724.7 174.983V339.538L1867.5 257.255V92.699L1724.7 174.983Z" fill="#60EEF1"/>
</g>
<g clip-path="url(#clip10_651_386)">
<path d="M1402.29 877.75L1257 794.033V626.61L1402.29 710.327V877.761V877.75ZM1258.24 793.316L1259.61 794.101L1401.04 875.588V711.032L1258.24 628.76V793.316Z" fill="#60EEF1"/>
<path d="M1406.11 703.727L1405.8 703.545L1260.82 620.01L1406.11 536.292L1406.41 536.475L1551.39 620.01L1406.11 703.727ZM1263.31 620.01L1406.11 702.293L1529.15 631.4L1548.91 620.01L1406.11 537.726L1263.31 620.01Z" fill="#60EEF1"/>
<path d="M1406.15 703.75L1405.79 703.545L1261.75 620.545L1262.37 619.475L1407.23 702.942L1406.15 703.75Z" fill="#60EEF1"/>
<path d="M1409.93 877.75V710.316L1410.23 710.133L1555.21 626.598V794.033L1553.22 795.182L1409.93 877.75ZM1411.17 711.044V875.599L1553.97 793.316V628.76L1411.17 711.044Z" fill="#60EEF1"/>
</g>
<g clip-path="url(#clip11_651_386)">
<path d="M1711.31 877.75L1566.02 794.033V626.61L1711.31 710.327V877.761V877.75ZM1567.27 793.316L1568.63 794.101L1710.07 875.588V711.032L1567.27 628.76V793.316Z" fill="#60EEF1"/>
<path d="M1715.13 703.727L1714.82 703.545L1569.84 620.01L1715.13 536.292L1715.44 536.475L1860.42 620.01L1715.13 703.727ZM1572.33 620.01L1715.13 702.293L1838.17 631.4L1857.93 620.01L1715.13 537.726L1572.33 620.01Z" fill="#60EEF1"/>
<path d="M1715.18 703.75L1714.81 703.545L1570.78 620.545L1571.39 619.475L1716.26 702.942L1715.18 703.75Z" fill="#60EEF1"/>
<path d="M1718.95 877.75V710.316L1719.26 710.133L1864.24 626.598V794.033L1862.24 795.182L1718.95 877.75ZM1720.19 711.044V875.599L1862.99 793.316V628.76L1720.19 711.044Z" fill="#60EEF1"/>
</g>
<g clip-path="url(#clip12_651_386)">
<path d="M1868.07 1146.23L1722.79 1062.51V895.091L1868.07 978.808V1146.24V1146.23ZM1724.03 1061.8L1725.4 1062.58L1866.83 1144.07V979.514L1724.03 897.241V1061.8Z" fill="#60EEF1"/>
<path d="M1871.89 972.208L1871.59 972.026L1726.61 888.491L1871.89 804.774L1872.2 804.956L2017.18 888.491L1871.89 972.208ZM1729.09 888.491L1871.89 970.774L1994.93 899.881L2014.69 888.491L1871.89 806.207L1729.09 888.491Z" fill="#60EEF1"/>
<path d="M1871.94 972.231L1871.57 972.026L1727.54 889.026L1728.16 887.956L1873.02 971.423L1871.94 972.231Z" fill="#60EEF1"/>
</g>
<g clip-path="url(#clip13_651_386)">
<path d="M1713.11 1412.01L1567.83 1328.29V1160.87L1713.11 1244.59V1412.02V1412.01ZM1569.07 1327.58L1570.44 1328.36L1711.87 1409.85V1245.29L1569.07 1163.02V1327.58Z" fill="#60EEF1"/>
<path d="M1716.93 1237.99L1716.62 1237.8L1571.65 1154.27L1716.93 1070.55L1717.24 1070.73L1862.22 1154.27L1716.93 1237.99ZM1574.13 1154.27L1716.93 1236.55L1839.97 1165.66L1859.73 1154.27L1716.93 1071.99L1574.13 1154.27Z" fill="#60EEF1"/>
<path d="M1716.98 1238.01L1716.61 1237.8L1572.58 1154.8L1573.2 1153.73L1718.06 1237.2L1716.98 1238.01Z" fill="#60EEF1"/>
<path d="M1720.75 1412.01V1244.57L1721.06 1244.39L1866.04 1160.86V1328.29L1864.04 1329.44L1720.75 1412.01ZM1721.99 1245.3V1409.86L1864.79 1327.58V1163.02L1721.99 1245.3Z" fill="#60EEF1"/>
</g>
<g clip-path="url(#clip14_651_386)">
<path d="M1868.07 610.17L1722.79 526.453V359.029L1868.07 442.747V610.181V610.17ZM1724.03 525.736L1725.4 526.521L1866.83 608.008V443.452L1724.03 361.18V525.736Z" fill="#60EEF1"/>
<path d="M1871.89 436.147L1871.59 435.965L1726.61 352.429L1871.89 268.712L1872.2 268.894L2017.18 352.429L1871.89 436.147ZM1729.09 352.429L1871.89 434.713L1994.93 363.82L2014.69 352.429L1871.89 270.146L1729.09 352.429Z" fill="#60EEF1"/>
<path d="M1871.94 436.169L1871.57 435.965L1727.54 352.964L1728.16 351.895L1873.02 435.362L1871.94 436.169Z" fill="#60EEF1"/>
</g>
<g clip-path="url(#clip15_651_386)">
<path d="M1555.45 1146.23L1410.16 1062.51V895.091L1555.45 978.808V1146.24V1146.23ZM1411.4 1061.8L1412.77 1062.58L1554.2 1144.07V979.514L1411.4 897.241V1061.8Z" fill="#60EEF1"/>
<path d="M1559.27 972.208L1558.96 972.026L1413.98 888.491L1559.27 804.774L1559.57 804.956L1704.55 888.491L1559.27 972.208ZM1416.47 888.491L1559.27 970.774L1682.31 899.881L1702.07 888.491L1559.27 806.207L1416.47 888.491Z" fill="#60EEF1"/>
<path d="M1559.31 972.231L1558.95 972.026L1414.92 889.026L1415.53 887.956L1560.4 971.423L1559.31 972.231Z" fill="#60EEF1"/>
<path d="M1563.09 1146.23V978.797L1563.39 978.615L1708.37 895.079V1062.51L1706.38 1063.66L1563.09 1146.23ZM1564.33 979.525V1144.08L1707.13 1061.8V897.241L1564.33 979.525Z" fill="#60EEF1"/>
</g>
<g clip-path="url(#clip16_651_386)">
<path d="M1867.17 1659.77L1721.89 1576.05V1408.63L1867.17 1492.35V1659.78V1659.77ZM1723.13 1575.33L1724.5 1576.12L1865.93 1657.61V1493.05L1723.13 1410.78V1575.33Z" fill="#60EEF1"/>
<path d="M1870.99 1485.75L1870.69 1485.56L1725.71 1402.03L1870.99 1318.31L1871.3 1318.49L2016.28 1402.03L1870.99 1485.75ZM1728.19 1402.03L1870.99 1484.31L1994.03 1413.42L2013.79 1402.03L1870.99 1319.75L1728.19 1402.03Z" fill="#60EEF1"/>
<path d="M1871.04 1485.77L1870.67 1485.56L1726.64 1402.56L1727.26 1401.49L1872.12 1484.96L1871.04 1485.77Z" fill="#60EEF1"/>
</g>
<g clip-path="url(#clip17_651_386)">
<path d="M1724.47 2387.11L1578.05 2302.74V2134.02L1724.47 2218.39V2387.12V2387.11ZM1579.3 2302.02L1580.68 2302.81L1723.21 2384.93V2219.1L1579.3 2136.19V2302.02Z" fill="#60EEF1"/>
<path d="M1728.32 2211.74L1728.01 2211.55L1581.9 2127.37L1728.32 2043L1728.63 2043.18L1874.73 2127.37L1728.32 2211.74ZM1584.41 2127.37L1728.32 2210.29L1852.31 2138.85L1872.23 2127.37L1728.32 2044.44L1584.41 2127.37Z" fill="#60EEF1"/>
<path d="M1728.36 2211.76L1727.99 2211.55L1582.84 2127.91L1583.46 2126.83L1729.45 2210.94L1728.36 2211.76Z" fill="#60EEF1"/>
</g>
<g clip-path="url(#clip18_651_386)">
<path d="M1724.47 2935.51L1578.05 2851.14V2682.42L1724.47 2766.79V2935.52V2935.51ZM1579.3 2850.42L1580.68 2851.21L1723.21 2933.33V2767.5L1579.3 2684.58V2850.42Z" fill="#60EEF1"/>
<path d="M1728.32 2760.13L1728.01 2759.95L1581.9 2675.77L1728.32 2591.4L1728.63 2591.58L1874.73 2675.77L1728.32 2760.13ZM1584.41 2675.77L1728.32 2758.69L1852.31 2687.25L1872.23 2675.77L1728.32 2592.84L1584.41 2675.77Z" fill="#60EEF1"/>
<path d="M1728.36 2760.16L1727.99 2759.95L1582.84 2676.31L1583.46 2675.23L1729.45 2759.34L1728.36 2760.16Z" fill="#60EEF1"/>
</g>
<g clip-path="url(#clip19_651_386)">
<path d="M1571.02 2661.31L1424.61 2576.94V2408.22L1571.02 2492.59V2661.32V2661.31ZM1425.86 2576.22L1427.24 2577.01L1569.77 2659.13V2493.3L1425.86 2410.39V2576.22Z" fill="#60EEF1"/>
<path d="M1574.87 2485.93L1574.56 2485.75L1428.46 2401.57L1574.87 2317.2L1575.18 2317.38L1721.29 2401.57L1574.87 2485.93ZM1430.96 2401.57L1574.87 2484.49L1698.87 2413.05L1718.78 2401.57L1574.87 2318.64L1430.96 2401.57Z" fill="#60EEF1"/>
<path d="M1574.92 2485.96L1574.55 2485.75L1429.4 2402.11L1430.02 2401.03L1576.01 2485.14L1574.92 2485.96Z" fill="#60EEF1"/>
<path d="M1578.72 2661.31V2492.57L1579.03 2492.39L1725.14 2408.21V2576.94L1723.13 2578.1L1578.72 2661.31ZM1579.98 2493.31V2659.14L1723.89 2576.22V2410.39L1579.98 2493.31Z" fill="#60EEF1"/>
</g>
<g clip-path="url(#clip20_651_386)">
<path d="M1571.02 3210.62L1424.61 3126.25V2957.52L1571.02 3041.89V3210.63V3210.62ZM1425.86 3125.53L1427.24 3126.32L1569.77 3208.44V3042.6L1425.86 2959.69V3125.53Z" fill="#60EEF1"/>
<path d="M1574.87 3035.24L1574.56 3035.06L1428.46 2950.87L1574.87 2866.51L1575.18 2866.69L1721.29 2950.87L1574.87 3035.24ZM1430.96 2950.87L1574.87 3033.8L1698.87 2962.35L1718.78 2950.87L1574.87 2867.95L1430.96 2950.87Z" fill="#60EEF1"/>
<path d="M1574.92 3035.26L1574.55 3035.06L1429.4 2951.41L1430.02 2950.33L1576.01 3034.45L1574.92 3035.26Z" fill="#60EEF1"/>
<path d="M1578.72 3210.62V3041.88L1579.03 3041.7L1725.14 2957.51V3126.25L1723.13 3127.41L1578.72 3210.62ZM1579.98 3042.61V3208.45L1723.89 3125.53V2959.69L1579.98 3042.61Z" fill="#60EEF1"/>
</g>
<g clip-path="url(#clip21_651_386)">
<path d="M1416.67 3482.09L1270.26 3397.72V3229L1416.67 3313.37V3482.1V3482.09ZM1271.51 3397L1272.89 3397.79L1415.42 3479.91V3314.08L1271.51 3231.17V3397Z" fill="#60EEF1"/>
<path d="M1420.52 3306.72L1420.21 3306.53L1274.11 3222.35L1420.52 3137.98L1420.83 3138.16L1566.94 3222.35L1420.52 3306.72ZM1276.61 3222.35L1420.52 3305.27L1544.52 3233.83L1564.43 3222.35L1420.52 3139.43L1276.61 3222.35Z" fill="#60EEF1"/>
<path d="M1420.57 3306.74L1420.2 3306.53L1275.05 3222.89L1275.67 3221.81L1421.66 3305.93L1420.57 3306.74Z" fill="#60EEF1"/>
<path d="M1424.37 3482.09V3313.36L1424.68 3313.17L1570.79 3228.99V3397.72L1568.78 3398.88L1424.37 3482.09ZM1425.63 3314.09V3479.92L1569.54 3397V3231.17L1425.63 3314.09Z" fill="#60EEF1"/>
</g>
<g clip-path="url(#clip22_651_386)">
<path d="M1261.42 3209.71L1115 3125.34V2956.62L1261.42 3040.98V3209.72V3209.71ZM1116.25 3124.62L1117.63 3125.41L1260.16 3207.53V3041.7L1116.25 2958.78V3124.62Z" fill="#60EEF1"/>
<path d="M1265.26 3034.33L1264.95 3034.15L1118.85 2949.97L1265.26 2865.6L1265.58 2865.78L1411.68 2949.97L1265.26 3034.33ZM1121.35 2949.97L1265.26 3032.89L1389.26 2961.44L1409.18 2949.97L1265.26 2867.04L1121.35 2949.97Z" fill="#60EEF1"/>
<path d="M1265.31 3034.36L1264.94 3034.15L1119.79 2950.5L1120.41 2949.43L1266.4 3033.54L1265.31 3034.36Z" fill="#60EEF1"/>
<path d="M1269.11 3209.71V3040.97L1269.42 3040.79L1415.53 2956.61V3125.34L1413.52 3126.5L1269.11 3209.71ZM1270.37 3041.71V3207.54L1414.28 3124.62V2958.78L1270.37 3041.71Z" fill="#60EEF1"/>
</g>
<g clip-path="url(#clip23_651_386)">
<path d="M1416.67 2932.79L1270.26 2848.42V2679.69L1416.67 2764.06V2932.8V2932.79ZM1271.51 2847.7L1272.89 2848.49L1415.42 2930.61V2764.77L1271.51 2681.86V2847.7Z" fill="#60EEF1"/>
<path d="M1420.52 2757.41L1420.21 2757.23L1274.11 2673.04L1420.52 2588.67L1420.83 2588.86L1566.94 2673.04L1420.52 2757.41ZM1276.61 2673.04L1420.52 2755.97L1544.52 2684.52L1564.43 2673.04L1420.52 2590.12L1276.61 2673.04Z" fill="#60EEF1"/>
<path d="M1420.57 2757.43L1420.2 2757.23L1275.05 2673.58L1275.67 2672.5L1421.66 2756.62L1420.57 2757.43Z" fill="#60EEF1"/>
<path d="M1424.37 2932.79V2764.05L1424.68 2763.87L1570.79 2679.68V2848.42L1568.78 2849.58L1424.37 2932.79ZM1425.63 2764.78V2930.62L1569.54 2847.7V2681.86L1425.63 2764.78Z" fill="#60EEF1"/>
</g>
<g clip-path="url(#clip24_651_386)">
<path d="M1721.74 3483L1575.33 3398.63V3229.91L1721.74 3314.28V3483.01V3483ZM1576.58 3397.91L1577.96 3398.7L1720.49 3480.82V3314.99L1576.58 3232.08V3397.91Z" fill="#60EEF1"/>
<path d="M1725.59 3307.62L1725.28 3307.44L1579.18 3223.26L1725.59 3138.89L1725.9 3139.07L1872.01 3223.26L1725.59 3307.62ZM1581.68 3223.26L1725.59 3306.18L1849.59 3234.74L1869.5 3223.26L1725.59 3140.33L1581.68 3223.26Z" fill="#60EEF1"/>
<path d="M1725.64 3307.65L1725.27 3307.44L1580.12 3223.8L1580.74 3222.72L1726.73 3306.83L1725.64 3307.65Z" fill="#60EEF1"/>
</g>
<defs>
<clipPath id="clip0_651_386">
<rect width="291.359" height="333.611" fill="white" transform="translate(1593.88 4895)"/>
</clipPath>
<clipPath id="clip1_651_386">
<rect width="291.359" height="333.611" fill="white" transform="translate(1446 5156.43)"/>
</clipPath>
<clipPath id="clip2_651_386">
<rect width="316.201" height="362.055" fill="white" transform="translate(-169.466 3463)"/>
</clipPath>
<clipPath id="clip3_651_386">
<rect width="316.201" height="362.055" fill="white" transform="translate(-4.20117 3745.77)"/>
</clipPath>
<clipPath id="clip4_651_386">
<rect width="331" height="379" fill="white" transform="translate(13 1650)"/>
</clipPath>
<clipPath id="clip5_651_386">
<rect width="331" height="379" fill="white" transform="translate(182 1946)"/>
</clipPath>
<clipPath id="clip6_651_386">
<rect width="331" height="379" fill="white" transform="translate(-148 1946)"/>
</clipPath>
<clipPath id="clip7_651_386">
<rect width="331" height="379" fill="white" transform="translate(-148 1351)"/>
</clipPath>
<clipPath id="clip8_651_386">
<rect width="331" height="379" fill="white" transform="translate(20 2241)"/>
</clipPath>
<clipPath id="clip9_651_386">
<rect width="298.212" height="341.458" fill="white" transform="translate(1570.53 0.23114)"/>
</clipPath>
<clipPath id="clip10_651_386">
<rect width="298.212" height="341.458" fill="white" transform="translate(1257 536.292)"/>
</clipPath>
<clipPath id="clip11_651_386">
<rect width="298.212" height="341.458" fill="white" transform="translate(1566.02 536.292)"/>
</clipPath>
<clipPath id="clip12_651_386">
<rect width="298.212" height="341.458" fill="white" transform="translate(1722.79 804.774)"/>
</clipPath>
<clipPath id="clip13_651_386">
<rect width="298.212" height="341.458" fill="white" transform="translate(1567.83 1070.55)"/>
</clipPath>
<clipPath id="clip14_651_386">
<rect width="298.212" height="341.458" fill="white" transform="translate(1722.79 268.712)"/>
</clipPath>
<clipPath id="clip15_651_386">
<rect width="298.212" height="341.458" fill="white" transform="translate(1410.16 804.774)"/>
</clipPath>
<clipPath id="clip16_651_386">
<rect width="298.212" height="341.458" fill="white" transform="translate(1721.89 1318.31)"/>
</clipPath>
<clipPath id="clip17_651_386">
<rect width="300.53" height="344.111" fill="white" transform="translate(1578.05 2043)"/>
</clipPath>
<clipPath id="clip18_651_386">
<rect width="300.53" height="344.111" fill="white" transform="translate(1578.05 2591.4)"/>
</clipPath>
<clipPath id="clip19_651_386">
<rect width="300.53" height="344.111" fill="white" transform="translate(1424.61 2317.2)"/>
</clipPath>
<clipPath id="clip20_651_386">
<rect width="300.53" height="344.111" fill="white" transform="translate(1424.61 2866.51)"/>
</clipPath>
<clipPath id="clip21_651_386">
<rect width="300.53" height="344.111" fill="white" transform="translate(1270.26 3137.98)"/>
</clipPath>
<clipPath id="clip22_651_386">
<rect width="300.53" height="344.111" fill="white" transform="translate(1115 2865.6)"/>
</clipPath>
<clipPath id="clip23_651_386">
<rect width="300.53" height="344.111" fill="white" transform="translate(1270.26 2588.67)"/>
</clipPath>
<clipPath id="clip24_651_386">
<rect width="300.53" height="344.111" fill="white" transform="translate(1575.33 3138.89)"/>
</clipPath>
</defs>
</svg>
