<?xml version="1.0" encoding="utf-8"?>
<!-- Generator: Adobe Illustrator 27.6.1, SVG Export Plug-In . SVG Version: 6.00 Build 0)  -->
<svg version="1.1" id="Layer_1" xmlns="http://www.w3.org/2000/svg" xmlns:xlink="http://www.w3.org/1999/xlink" x="0px" y="0px"
	 viewBox="0 0 1728 2773.3" style="enable-background:new 0 0 1728 2773.3;" xml:space="preserve">
<style type="text/css">
	.st0{clip-path:url(#SVGID_00000098904246421948592650000008806002623516546229_);}
	.st1{fill:#60EEF1;}
	.st2{clip-path:url(#SVGID_00000096737403876166734300000014974341306562957970_);}
	.st3{clip-path:url(#SVGID_00000038408576516682426170000011999306234848118162_);}
	.st4{clip-path:url(#SVGID_00000008836022382954921820000006221434677814672303_);}
	.st5{clip-path:url(#SVGID_00000089568723169036105410000006712029133436485250_);}
	.st6{clip-path:url(#SVGID_00000157297558284442676110000010086184508884264370_);}
	.st7{clip-path:url(#SVGID_00000066502595142101519230000010326357990450747009_);}
	.st8{clip-path:url(#SVGID_00000032647014685484869930000000799305421675158201_);}
	.st9{clip-path:url(#SVGID_00000008120656416472954590000018081968860045671068_);}
	.st10{clip-path:url(#SVGID_00000177459583488730857870000011803119477174602911_);}
	.st11{clip-path:url(#SVGID_00000032626582139597264380000012836320592855356050_);}
	.st12{clip-path:url(#SVGID_00000052806967408399353750000004419506993036621984_);}
	.st13{clip-path:url(#SVGID_00000181806084831721705920000005075509177229640099_);}
	.st14{clip-path:url(#SVGID_00000163034872308140162150000017190372093859463060_);}
	.st15{clip-path:url(#SVGID_00000067951893186437901680000008228532874712649873_);}
	.st16{clip-path:url(#SVGID_00000152225806174715778690000000853001766963754112_);}
	.st17{clip-path:url(#SVGID_00000147203672912824347160000018392496631134323336_);}
	.st18{clip-path:url(#SVGID_00000137125867421690094450000000050345615805792940_);}
	.st19{clip-path:url(#SVGID_00000143596430738431798730000008480036164158194602_);}
	.st20{clip-path:url(#SVGID_00000127738380033445684310000007638670826181431972_);}
	.st21{clip-path:url(#SVGID_00000042705394722408975250000000756027188067227286_);}
	.st22{clip-path:url(#SVGID_00000045612977076296210610000005251638355937655190_);}
	.st23{clip-path:url(#SVGID_00000056424623410308886290000014187249444908081062_);}
	.st24{clip-path:url(#SVGID_00000046319156567794345120000009773917838187816321_);}
	.st25{clip-path:url(#SVGID_00000173881044629767020060000005291809222834627745_);}
</style>
<g>
	<g>
		<defs>
			<rect id="SVGID_00000147184602948180486050000006302366200143096710_" x="-126.3" y="2187.7" width="253" height="289.6"/>
		</defs>
		<clipPath id="SVGID_00000024706686786436998780000012476236465555714234_">
			<use xlink:href="#SVGID_00000147184602948180486050000006302366200143096710_"  style="overflow:visible;"/>
		</clipPath>
		<g style="clip-path:url(#SVGID_00000024706686786436998780000012476236465555714234_);">
			<path class="st1" d="M0.2,2329.7l-0.3-0.2l-123-70.9l123.2-71l0.3,0.2l123,70.9L0.2,2329.7z M-120.9,2258.7l121.1,69.8
				l104.4-60.1l16.8-9.7L0.2,2188.9L-120.9,2258.7z"/>
			<path class="st1" d="M3.4,2477.4v-142l0.3-0.2l123-70.9v142l-1.7,1L3.4,2477.4z M4.5,2335.9v139.6l121.1-69.8v-139.6L4.5,2335.9z
				"/>
		</g>
	</g>
	<g>
		<defs>
			<rect id="SVGID_00000147188128955271181380000006953951222280760218_" x="5.9" y="2413.9" width="253" height="289.6"/>
		</defs>
		<clipPath id="SVGID_00000052802926950720292430000011931579181377926828_">
			<use xlink:href="#SVGID_00000147188128955271181380000006953951222280760218_"  style="overflow:visible;"/>
		</clipPath>
		<g style="clip-path:url(#SVGID_00000052802926950720292430000011931579181377926828_);">
			<path class="st1" d="M129.2,2703.6l-123.2-71v-142l123.2,71V2703.6L129.2,2703.6z M7,2631.9l1.2,0.7l120,69.1v-139.6L7,2492.4
				V2631.9z"/>
			<path class="st1" d="M132.4,2556l-0.3-0.2l-123-70.9l123.2-71l0.3,0.2l123,70.9L132.4,2556z M11.3,2484.9l121.1,69.8l104.4-60.1
				l16.8-9.7l-121.1-69.8L11.3,2484.9z"/>
			<path class="st1" d="M132.5,2556l-0.3-0.2L10,2485.4l0.5-0.9l122.9,70.8L132.5,2556z"/>
			<path class="st1" d="M135.7,2703.6v-142l0.3-0.2l123-70.9v142l-1.7,1L135.7,2703.6z M136.7,2562.2v139.6l121.1-69.8v-139.6
				L136.7,2562.2z"/>
		</g>
	</g>
</g>
<g>
	<g>
		<defs>
			<rect id="SVGID_00000162313415278437256330000006535690032922087078_" x="-3.6" y="377.3" width="264.8" height="303.2"/>
		</defs>
		<clipPath id="SVGID_00000105391295498187697870000009368468549065599162_">
			<use xlink:href="#SVGID_00000162313415278437256330000006535690032922087078_"  style="overflow:visible;"/>
		</clipPath>
		<g style="clip-path:url(#SVGID_00000105391295498187697870000009368468549065599162_);">
			<path class="st1" d="M125.4,680.5l-129-74.3V457.5l129,74.3V680.5L125.4,680.5z M-2.5,605.6l1.2,0.7l125.6,72.4V532.5L-2.5,459.4
				V605.6z"/>
			<path class="st1" d="M128.8,526l-0.3-0.2L-0.2,451.7l129-74.3l0.3,0.2l128.7,74.2L128.8,526z M2,451.7l126.8,73.1l109.3-63
				l17.5-10.1l-126.8-73.1L2,451.7z"/>
			<path class="st1" d="M128.8,526l-0.3-0.2L0.6,452.1l0.5-1l128.6,74.1L128.8,526z"/>
			<path class="st1" d="M132.2,680.5V531.9l0.3-0.2l128.7-74.2v148.7l-1.8,1L132.2,680.5z M133.3,532.5v146.1l126.8-73.1V459.4
				L133.3,532.5z"/>
		</g>
	</g>
	<g>
		<defs>
			<rect id="SVGID_00000022522871096586139350000015932577382833464500_" x="131.6" y="614.1" width="264.8" height="303.2"/>
		</defs>
		<clipPath id="SVGID_00000066483053027592440730000014675412406263564704_">
			<use xlink:href="#SVGID_00000022522871096586139350000015932577382833464500_"  style="overflow:visible;"/>
		</clipPath>
		<g style="clip-path:url(#SVGID_00000066483053027592440730000014675412406263564704_);">
			<path class="st1" d="M260.6,917.3l-129-74.3V694.3l129,74.3V917.3L260.6,917.3z M132.7,842.4l1.2,0.7l125.6,72.4V769.3
				l-126.8-73.1V842.4z"/>
			<path class="st1" d="M264,762.8l-0.3-0.2L135,688.5l129-74.3l0.3,0.2L393,688.5L264,762.8z M137.2,688.5L264,761.5l109.3-63
				l17.5-10.1L264,615.4L137.2,688.5z"/>
			<path class="st1" d="M264,762.8l-0.3-0.2l-127.9-73.7l0.5-1L265,762.1L264,762.8z"/>
			<path class="st1" d="M267.4,917.3V768.7l0.3-0.2l128.7-74.2V843l-1.8,1L267.4,917.3z M268.5,769.3v146.1l126.8-73.1V696.2
				L268.5,769.3z"/>
		</g>
	</g>
	<g>
		<defs>
			<rect id="SVGID_00000101809652451763683040000004013747000166091960_" x="-132.4" y="614.1" width="264.8" height="303.2"/>
		</defs>
		<clipPath id="SVGID_00000021822221510035750180000000157112030467603592_">
			<use xlink:href="#SVGID_00000101809652451763683040000004013747000166091960_"  style="overflow:visible;"/>
		</clipPath>
		<g style="clip-path:url(#SVGID_00000021822221510035750180000000157112030467603592_);">
			<path class="st1" d="M0,762.8l-0.3-0.2L-129,688.5L0,614.1l0.3,0.2L129,688.5L0,762.8z M-126.8,688.5L0,761.5l109.3-63l17.5-10.1
				L0,615.4L-126.8,688.5z"/>
			<path class="st1" d="M0,762.8l-0.3-0.2l-127.9-73.7l0.5-1L1,762.1L0,762.8z"/>
			<path class="st1" d="M3.4,917.3V768.7l0.3-0.2l128.7-74.2V843l-1.8,1L3.4,917.3z M4.5,769.3v146.1l126.8-73.1V696.2L4.5,769.3z"
				/>
		</g>
	</g>
	<g>
		<defs>
			<rect id="SVGID_00000146457966242925148860000002845329448637716635_" x="-132.4" y="138.1" width="264.8" height="303.2"/>
		</defs>
		<clipPath id="SVGID_00000065037487806934785210000001989316334211239820_">
			<use xlink:href="#SVGID_00000146457966242925148860000002845329448637716635_"  style="overflow:visible;"/>
		</clipPath>
		<g style="clip-path:url(#SVGID_00000065037487806934785210000001989316334211239820_);">
			<path class="st1" d="M0,286.8l-0.3-0.2L-129,212.5L0,138.1l0.3,0.2L129,212.5L0,286.8z M-126.8,212.5L0,285.5l109.3-63l17.5-10.1
				L0,139.4L-126.8,212.5z"/>
			<path class="st1" d="M0,286.8l-0.3-0.2l-127.9-73.7l0.5-1L1,286.1L0,286.8z"/>
			<path class="st1" d="M3.4,441.3V292.7l0.3-0.2l128.7-74.2V367l-1.8,1L3.4,441.3z M4.5,293.3v146.1l126.8-73.1V220.2L4.5,293.3z"
				/>
		</g>
	</g>
	<g>
		<defs>
			<rect id="SVGID_00000168816074880786314000000003640810677153745083_" x="2" y="850.1" width="264.8" height="303.2"/>
		</defs>
		<clipPath id="SVGID_00000101807860926423649040000010937813285328115357_">
			<use xlink:href="#SVGID_00000168816074880786314000000003640810677153745083_"  style="overflow:visible;"/>
		</clipPath>
		<g style="clip-path:url(#SVGID_00000101807860926423649040000010937813285328115357_);">
			<path class="st1" d="M131,1153.3L2,1079V930.3l129,74.3V1153.3L131,1153.3z M3.1,1078.4l1.2,0.7l125.6,72.4v-146.1L3.1,932.2
				V1078.4z"/>
			<path class="st1" d="M134.4,998.8l-0.3-0.2L5.4,924.5l129-74.3l0.3,0.2l128.7,74.2L134.4,998.8z M7.6,924.5l126.8,73.1l109.3-63
				l17.5-10.1l-126.8-73.1L7.6,924.5z"/>
			<path class="st1" d="M134.4,998.8l-0.3-0.2L6.2,924.9l0.5-1l128.6,74.1L134.4,998.8z"/>
			<path class="st1" d="M137.8,1153.3v-148.7l0.3-0.2l128.7-74.2V1079l-1.8,1L137.8,1153.3z M138.9,1005.3v146.1l126.8-73.1V932.2
				L138.9,1005.3z"/>
		</g>
	</g>
</g>
<g>
	<g>
		<defs>
			<rect id="SVGID_00000028307723761521803830000005166353875540949125_" x="1606.9" y="847.2" width="240.4" height="275.3"/>
		</defs>
		<clipPath id="SVGID_00000178173992624647980710000006246251318140822415_">
			<use xlink:href="#SVGID_00000028307723761521803830000005166353875540949125_"  style="overflow:visible;"/>
		</clipPath>
		<g style="clip-path:url(#SVGID_00000178173992624647980710000006246251318140822415_);">
			<path class="st1" d="M1724,1122.5l-117.1-67.5V920l117.1,67.5V1122.5L1724,1122.5z M1607.9,1054.4l1.1,0.6l114,65.7V988.1
				l-115.1-66.3V1054.4z"/>
			<path class="st1" d="M1727.1,982.2l-0.2-0.2L1610,914.7l117.1-67.5l0.2,0.1l116.9,67.4L1727.1,982.2z M1612,914.7l115.1,66.3
				l99.2-57.2l15.9-9.2l-115.1-66.3L1612,914.7z"/>
			<path class="st1" d="M1727.1,982.2l-0.3-0.2l-116.1-66.9l0.5-0.9l116.8,67.3L1727.1,982.2z"/>
		</g>
	</g>
	<g>
		<defs>
			<rect id="SVGID_00000070114023055761328720000000444037408287232934_" x="1606.9" y="1286" width="240.4" height="275.3"/>
		</defs>
		<clipPath id="SVGID_00000093857345848769882500000004114420785164735874_">
			<use xlink:href="#SVGID_00000070114023055761328720000000444037408287232934_"  style="overflow:visible;"/>
		</clipPath>
		<g style="clip-path:url(#SVGID_00000093857345848769882500000004114420785164735874_);">
			<path class="st1" d="M1724,1561.2l-117.1-67.5v-135l117.1,67.5V1561.2L1724,1561.2z M1607.9,1493.2l1.1,0.6l114,65.7v-132.7
				l-115.1-66.3V1493.2z"/>
			<path class="st1" d="M1727.1,1420.9l-0.2-0.1l-116.9-67.3l117.1-67.5l0.2,0.1l116.9,67.4L1727.1,1420.9z M1612,1353.4l115.1,66.3
				l99.2-57.2l15.9-9.2l-115.1-66.3L1612,1353.4z"/>
			<path class="st1" d="M1727.1,1421l-0.3-0.2l-116.1-66.9l0.5-0.9l116.8,67.3L1727.1,1421z"/>
		</g>
	</g>
	<g>
		<defs>
			<rect id="SVGID_00000118387204903618604480000013208274632822284728_" x="1484.1" y="1066.6" width="240.4" height="275.3"/>
		</defs>
		<clipPath id="SVGID_00000054948783221820474670000000648794758124537258_">
			<use xlink:href="#SVGID_00000118387204903618604480000013208274632822284728_"  style="overflow:visible;"/>
		</clipPath>
		<g style="clip-path:url(#SVGID_00000054948783221820474670000000648794758124537258_);">
			<path class="st1" d="M1601.3,1341.9l-117.1-67.5v-135l117.1,67.5V1341.9L1601.3,1341.9z M1485.1,1273.8l1.1,0.6l114,65.7v-132.7
				l-115.1-66.3V1273.8z"/>
			<path class="st1" d="M1604.3,1201.6l-0.2-0.1l-116.9-67.3l117.1-67.5l0.2,0.1l116.9,67.4L1604.3,1201.6z M1489.2,1134.1
				l115.1,66.3l99.2-57.2l15.9-9.2l-115.1-66.3L1489.2,1134.1z"/>
			<path class="st1" d="M1604.4,1201.6l-0.3-0.2l-116.1-66.9l0.5-0.9l116.8,67.3L1604.4,1201.6z"/>
			<path class="st1" d="M1607.4,1341.9v-135l0.2-0.1l116.9-67.3v135l-1.6,0.9L1607.4,1341.9z M1608.4,1207.5v132.7l115.1-66.3
				v-132.7L1608.4,1207.5z"/>
		</g>
	</g>
	<g>
		<defs>
			<rect id="SVGID_00000065045305600072610290000017247361867518697394_" x="1484.1" y="1506" width="240.4" height="275.3"/>
		</defs>
		<clipPath id="SVGID_00000114068674253711697740000007247087961031563921_">
			<use xlink:href="#SVGID_00000065045305600072610290000017247361867518697394_"  style="overflow:visible;"/>
		</clipPath>
		<g style="clip-path:url(#SVGID_00000114068674253711697740000007247087961031563921_);">
			<path class="st1" d="M1601.3,1781.3l-117.1-67.5v-135l117.1,67.5V1781.3L1601.3,1781.3z M1485.1,1713.3l1.1,0.6l114,65.7v-132.7
				l-115.1-66.3V1713.3z"/>
			<path class="st1" d="M1604.3,1641l-0.2-0.1l-116.9-67.4l117.1-67.5l0.2,0.1l116.9,67.3L1604.3,1641z M1489.2,1573.5l115.1,66.3
				l99.2-57.2l15.9-9.2l-115.1-66.3L1489.2,1573.5z"/>
			<path class="st1" d="M1604.4,1641l-0.3-0.2L1488,1574l0.5-0.9l116.8,67.3L1604.4,1641z"/>
			<path class="st1" d="M1607.4,1781.3v-135l0.2-0.1l116.9-67.4v135l-1.6,0.9L1607.4,1781.3z M1608.4,1646.9v132.7l115.1-66.3
				v-132.7L1608.4,1646.9z"/>
		</g>
	</g>
	<g>
		<defs>
			<rect id="SVGID_00000098195917963210906970000002103030525658368170_" x="1360.6" y="1723.2" width="240.4" height="275.3"/>
		</defs>
		<clipPath id="SVGID_00000088812134320007848850000012493937864093163170_">
			<use xlink:href="#SVGID_00000098195917963210906970000002103030525658368170_"  style="overflow:visible;"/>
		</clipPath>
		<g style="clip-path:url(#SVGID_00000088812134320007848850000012493937864093163170_);">
			<path class="st1" d="M1477.8,1998.5l-117.1-67.5v-135l117.1,67.5V1998.5L1477.8,1998.5z M1361.6,1930.4l1.1,0.6l114,65.7v-132.7
				l-115.1-66.3V1930.4z"/>
			<path class="st1" d="M1480.9,1858.2l-0.2-0.2l-116.9-67.3l117.1-67.5l0.2,0.1l116.9,67.4L1480.9,1858.2z M1365.7,1790.7
				l115.1,66.3l99.2-57.2l15.9-9.2l-115.1-66.3L1365.7,1790.7z"/>
			<path class="st1" d="M1480.9,1858.2l-0.3-0.2l-116.1-66.9l0.5-0.9l116.8,67.3L1480.9,1858.2z"/>
			<path class="st1" d="M1483.9,1998.5v-135l0.2-0.2l116.9-67.3v135l-1.6,0.9L1483.9,1998.5z M1484.9,1864.1v132.7l115.1-66.3
				v-132.7L1484.9,1864.1z"/>
		</g>
	</g>
	<g>
		<defs>
			<rect id="SVGID_00000065033429463849590740000015066804105909596044_" x="1236.4" y="1505.3" width="240.4" height="275.3"/>
		</defs>
		<clipPath id="SVGID_00000085970463050457760320000014915679708140540850_">
			<use xlink:href="#SVGID_00000065033429463849590740000015066804105909596044_"  style="overflow:visible;"/>
		</clipPath>
		<g style="clip-path:url(#SVGID_00000085970463050457760320000014915679708140540850_);">
			<path class="st1" d="M1353.6,1780.6l-117.1-67.5v-135l117.1,67.5V1780.6L1353.6,1780.6z M1237.4,1712.5l1.1,0.6l114,65.7v-132.7
				l-115.1-66.3V1712.5z"/>
			<path class="st1" d="M1356.6,1640.3l-0.2-0.1l-116.9-67.3l117.1-67.5l0.3,0.1l116.9,67.4L1356.6,1640.3z M1241.5,1572.8
				l115.1,66.3l99.2-57.2l15.9-9.2l-115.1-66.3L1241.5,1572.8z"/>
			<path class="st1" d="M1356.7,1640.3l-0.3-0.2l-116.1-66.9l0.5-0.9l116.8,67.3L1356.7,1640.3z"/>
			<path class="st1" d="M1359.7,1780.6v-135l0.2-0.1l116.9-67.3v135l-1.6,0.9L1359.7,1780.6z M1360.7,1646.2v132.7l115.1-66.3
				v-132.7L1360.7,1646.2z"/>
		</g>
	</g>
	<g>
		<defs>
			<rect id="SVGID_00000132786148348862193930000015511886931846064810_" x="1360.6" y="1283.8" width="240.4" height="275.3"/>
		</defs>
		<clipPath id="SVGID_00000114756024156006881770000016695872796314059445_">
			<use xlink:href="#SVGID_00000132786148348862193930000015511886931846064810_"  style="overflow:visible;"/>
		</clipPath>
		<g style="clip-path:url(#SVGID_00000114756024156006881770000016695872796314059445_);">
			<path class="st1" d="M1477.8,1559.1l-117.1-67.5v-135l117.1,67.5V1559.1L1477.8,1559.1z M1361.6,1491l1.1,0.6l114,65.7v-132.7
				l-115.1-66.3V1491z"/>
			<path class="st1" d="M1480.9,1418.8l-0.2-0.1l-116.9-67.4l117.1-67.5l0.2,0.2l116.9,67.3L1480.9,1418.8z M1365.7,1351.3
				l115.1,66.3l99.2-57.2l15.9-9.2l-115.1-66.3L1365.7,1351.3z"/>
			<path class="st1" d="M1480.9,1418.8l-0.3-0.2l-116.1-66.9l0.5-0.9l116.8,67.3L1480.9,1418.8z"/>
			<path class="st1" d="M1483.9,1559.1v-135l0.2-0.1l116.9-67.4v135l-1.6,0.9L1483.9,1559.1z M1484.9,1424.7v132.7l115.1-66.3
				v-132.7L1484.9,1424.7z"/>
		</g>
	</g>
	<g>
		<defs>
			<rect id="SVGID_00000078044841210694289180000001825348686870976928_" x="1604.7" y="1723.9" width="240.4" height="275.3"/>
		</defs>
		<clipPath id="SVGID_00000075841399744782842930000007724931561511105699_">
			<use xlink:href="#SVGID_00000078044841210694289180000001825348686870976928_"  style="overflow:visible;"/>
		</clipPath>
		<g style="clip-path:url(#SVGID_00000075841399744782842930000007724931561511105699_);">
			<path class="st1" d="M1721.8,1999.2l-117.1-67.5v-135l117.1,67.5V1999.2L1721.8,1999.2z M1605.7,1931.2l1.1,0.6l114,65.7v-132.7
				l-115.1-66.3V1931.2z"/>
			<path class="st1" d="M1724.9,1858.9l-0.2-0.1l-116.9-67.3l117.1-67.5l0.2,0.1l116.9,67.4L1724.9,1858.9z M1609.8,1791.4
				l115.1,66.3l99.2-57.2l15.9-9.2l-115.1-66.3L1609.8,1791.4z"/>
			<path class="st1" d="M1725,1859l-0.3-0.2l-116.1-66.9l0.5-0.9l116.8,67.3L1725,1859z"/>
		</g>
	</g>
</g>
</svg>
