<?xml version="1.0" encoding="utf-8"?>
<!-- Generator: Adobe Illustrator 27.6.1, SVG Export Plug-In . SVG Version: 6.00 Build 0)  -->
<svg version="1.1" id="Layer_1" xmlns="http://www.w3.org/2000/svg" xmlns:xlink="http://www.w3.org/1999/xlink" x="0px" y="0px"
	 viewBox="0 0 1728 385.6" style="enable-background:new 0 0 1728 385.6;" xml:space="preserve">
<style type="text/css">
	.st0{fill:none;stroke:#2DD697;}
	.st1{fill:#14264D;}
	.st2{clip-path:url(#SVGID_00000134933486619849564170000007367712689210859165_);}
</style>
<g>
	<path class="st1" d="M-34.4,263.5l-32-18.5v115.3l1.2,0.7l98.5,57v-57v-58.3L-34.4,263.5z"/>
	<path class="st1" d="M121.7,248l14.3-8.3l-99.7-57.6l-99.7,57.6l99.7,57.6L121.7,248z"/>
	<path class="st1" d="M85,276.3l-45.7,26.4V361v57l98.5-57l1.2-0.7V245L85,276.3z"/>
	<path class="st1" d="M178.2,263.5l-32-18.5v115.3l1.2,0.7l98.5,57v-57v-58.3L178.2,263.5z"/>
	<path class="st1" d="M334.3,248l14.3-8.3L249,182.1l-99.7,57.6l99.7,57.6L334.3,248z"/>
	<path class="st1" d="M297.7,276.3L252,302.7V361v57l98.5-57l1.2-0.7V245L297.7,276.3z"/>
</g>
<g>
	<defs>
		<rect id="SVGID_1_" x="1487.1" y="91.4" width="632.8" height="606.4"/>
	</defs>
	<clipPath id="SVGID_00000109016622463372093950000003724403367607020212_">
		<use xlink:href="#SVGID_1_"  style="overflow:visible;"/>
	</clipPath>
	<g style="clip-path:url(#SVGID_00000109016622463372093950000003724403367607020212_);">
		<path class="st1" d="M1625.9,358.3l-32-18.5V455l1.2,0.7l98.5,57v-57v-58.3L1625.9,358.3z"/>
		<path class="st1" d="M1782,342.7l14.3-8.3l-99.7-57.6l-99.7,57.6l99.7,57.6L1782,342.7z"/>
		<path class="st1" d="M1745.4,371l-45.7,26.4v58.3v57l98.5-57l1.2-0.7V339.8L1745.4,371z"/>
		<path class="st1" d="M1519.1,172.9l-32-18.5v115.3l1.2,0.7l98.5,57v-57V212L1519.1,172.9z"/>
		<path class="st1" d="M1675.2,157.3l14.3-8.3l-99.7-57.6l-99.7,57.6l99.7,57.6L1675.2,157.3z"/>
		<path class="st1" d="M1638.6,185.6l-45.7,26.4v58.3v57l98.5-57l1.2-0.7V154.3L1638.6,185.6z"/>
		<path class="st1" d="M1733.7,172.9l-32-18.5v115.3l1.2,0.7l98.5,57v-57V212L1733.7,172.9z"/>
		<path class="st1" d="M1889.8,157.3l14.3-8.3l-99.7-57.6l-99.7,57.6l99.7,57.6L1889.8,157.3z"/>
	</g>
</g>
</svg>
