<?xml version="1.0" encoding="utf-8"?>
<!-- Generator: Adobe Illustrator 27.6.1, SVG Export Plug-In . SVG Version: 6.00 Build 0)  -->
<svg version="1.1" id="Layer_1" xmlns="http://www.w3.org/2000/svg" xmlns:xlink="http://www.w3.org/1999/xlink" x="0px" y="0px"
	 viewBox="0 0 1728 1424" style="enable-background:new 0 0 1728 1424;" xml:space="preserve">
<style type="text/css">
	.st0{fill:none;stroke:#2DD697;}
	.st1{fill:#14264D;}
	.st2{clip-path:url(#SVGID_00000026867407232352472420000008661100213435583885_);}
</style>
<path class="st0" d="M1727.3,1132.2l-76.3-45.2h0l-0.7-0.4v-91.2l24.3,14.4l0,0l52.7,31.2v46.5V1132.2z"/>
<path class="st0" d="M1730.2,944.6l77,45.6l-10.5,6.2l-66.5,39.4l-77-45.6L1730.2,944.6z"/>
<path class="st0" d="M1644.5,1278.4l-76.3-45.2l0,0l-0.7-0.4v-91.2l24.3,14.4h0l52.7,31.2v46.5V1278.4z"/>
<path class="st0" d="M1647.4,1090.8l77,45.6l-10.5,6.2l-66.5,39.4l-77-45.6L1647.4,1090.8z"/>
<path class="st0" d="M1727.3,1141.6v91.2l-0.7,0.4l0,0l-76.3,45.2v-44.8v-46.5l35.5-21l-0.3-0.4l0.3,0.4L1727.3,1141.6z"/>
<path class="st0" d="M1727.3,1424l-76.3-45.2h0l-0.7-0.4v-91.2l24.3,14.4l0,0l52.7,31.2v46.4V1424z"/>
<path class="st0" d="M1730.2,1236.4l77,45.6l-10.5,6.2l-66.5,39.4l-77-45.6L1730.2,1236.4z"/>
<path class="st0" d="M0.2,0.6l77,43.5l-10.4,5.9L0.2,87.5l-77-43.5L0.2,0.6z"/>
<path class="st0" d="M38.5,72.4L38.3,72L38.5,72.4L80,49v86.9l-0.7,0.4h0L3.1,179.4v-42.7V92.4L38.5,72.4z"/>
<path class="st0" d="M80,318.8L3.7,275.7h0l-0.7-0.4v-86.9l24.3,13.7h0L80,231.8v44.3V318.8z"/>
<path class="st0" d="M82.9,140l77,43.5l-10.4,5.9l-66.5,37.6L6,183.4L82.9,140z"/>
<path class="st0" d="M121.3,211.8l-0.2-0.4L121.3,211.8l41.5-23.4v86.9l-0.7,0.4h0l-76.3,43.1v-42.7v-44.3L121.3,211.8z"/>
<path class="st0" d="M0.2,278.7l77,43.5l-10.4,5.9L0.2,365.7l-77-43.5L0.2,278.7z"/>
<path class="st0" d="M38.5,350.6l-0.2-0.4L38.5,350.6L80,327.1v86.9l-0.7,0.4l0,0L3.1,457.5v-42.7v-44.3L38.5,350.6z"/>
</svg>
