<svg width="1728" height="2078" viewBox="0 0 1728 2078" fill="none" xmlns="http://www.w3.org/2000/svg">
<path d="M-78.7087 1931.85L-118.735 1908.7V2052.79L-117.272 2053.63L5.86897 2124.84V2053.63V1980.75L-78.7087 1931.85Z" fill="#14264D"/>
<path d="M116.413 1912.39L134.319 1902.05L9.71516 1830L-114.889 1902.05L9.71516 1974.09L116.413 1912.39Z" fill="#14264D"/>
<path d="M70.6177 1947.75L13.5493 1980.75V2053.63V2124.84L136.702 2053.63L138.153 2052.79V1908.7L70.6177 1947.75Z" fill="#14264D"/>
<path d="M187.138 1931.85L147.112 1908.7V2052.79L148.563 2053.63L271.716 2124.84V2053.63V1980.75L187.138 1931.85Z" fill="#14264D"/>
<path d="M382.26 1912.39L400.154 1902.05L275.55 1830L150.946 1902.05L275.55 1974.09L382.26 1912.39Z" fill="#14264D"/>
<path d="M336.464 1947.75L279.396 1980.75V2053.63V2124.84L402.537 2053.63L404 2052.79V1908.7L336.464 1947.75Z" fill="#14264D"/>
<g clip-path="url(#clip0_651_382)">
<path d="M1581.55 2026.63L1541.53 2003.49V2147.58L1542.98 2148.42L1666.13 2219.63V2148.42V2075.54L1581.55 2026.63Z" fill="#14264D"/>
<path d="M1776.68 2007.18L1794.57 1996.82L1669.97 1924.79L1545.36 1996.82L1669.97 2068.87L1776.68 2007.18Z" fill="#14264D"/>
<path d="M1730.88 2042.54L1673.81 2075.54V2148.42V2219.63L1796.95 2148.42L1798.42 2147.58V2003.49L1730.88 2042.54Z" fill="#14264D"/>
<path d="M1448.03 1794.85L1408 1771.7V1915.79L1409.45 1916.63L1532.6 1987.84V1916.63V1843.75L1448.03 1794.85Z" fill="#14264D"/>
<path d="M1643.15 1775.39L1661.04 1765.05L1536.44 1693L1411.83 1765.05L1536.44 1837.09L1643.15 1775.39Z" fill="#14264D"/>
<path d="M1597.35 1810.75L1540.28 1843.75V1916.63V1987.84L1663.43 1916.63L1664.89 1915.79V1771.7L1597.35 1810.75Z" fill="#14264D"/>
<path d="M1716.29 1794.85L1676.27 1771.7V1915.79L1677.73 1916.63L1800.87 1987.84V1916.63V1843.75L1716.29 1794.85Z" fill="#14264D"/>
<path d="M1911.41 1775.39L1929.32 1765.05L1804.72 1693L1680.11 1765.05L1804.72 1837.09L1911.41 1775.39Z" fill="#14264D"/>
</g>
<path d="M1727.26 1132.2L1650.95 1086.99L1650.94 1086.99L1650.28 1086.59V995.355L1674.57 1009.74L1674.57 1009.74L1727.26 1040.96V1087.42V1132.2Z" stroke="#2DD697"/>
<path d="M1730.16 944.581L1807.16 990.203L1796.68 996.414L1730.16 1035.82L1653.16 990.203L1730.16 944.581Z" stroke="#2DD697"/>
<path d="M1644.48 1278.43L1568.17 1233.22L1568.17 1233.22L1567.5 1232.82V1141.59L1591.79 1155.97L1591.8 1155.97L1644.48 1187.19V1233.65V1278.43Z" stroke="#2DD697"/>
<path d="M1647.39 1090.81L1724.39 1136.44L1713.91 1142.65L1647.39 1182.05L1570.39 1136.44L1647.39 1090.81Z" stroke="#2DD697"/>
<path d="M1727.27 1141.59V1232.82L1726.61 1233.22L1726.61 1233.22L1650.29 1278.43V1233.65V1187.19L1685.76 1166.18L1685.5 1165.75L1685.76 1166.18L1727.27 1141.59Z" stroke="#2DD697"/>
<path d="M1727.26 1424.01L1650.95 1378.8L1650.94 1378.8L1650.28 1378.41V1287.17L1674.57 1301.56L1674.57 1301.56L1727.26 1332.78V1379.23V1424.01Z" stroke="#2DD697"/>
<path d="M1730.16 1236.4L1807.16 1282.02L1796.68 1288.23L1730.16 1327.64L1653.16 1282.02L1730.16 1236.4Z" stroke="#2DD697"/>
<path d="M0.164124 0.574231L77.129 44.0419L66.6936 49.9365L0.164131 87.5025L-76.8006 44.0418L0.164124 0.574231Z" stroke="#2DD697"/>
<path d="M38.5252 72.4194L38.3012 72.0227L38.5252 72.4194L80.0455 48.9728V135.902L79.3916 136.272L79.3909 136.272L3.06396 179.371V136.707V92.4429L38.5252 72.4194Z" stroke="#2DD697"/>
<path d="M80.0318 318.763L3.71139 275.664L3.71057 275.664L3.05029 275.292V188.365L27.3542 202.084L27.3543 202.084L80.0318 231.835V276.099V318.763Z" stroke="#2DD697"/>
<path d="M82.9385 139.966L159.903 183.434L149.468 189.328L82.9385 226.894L5.97384 183.434L82.9385 139.966Z" stroke="#2DD697"/>
<path d="M121.3 211.811L121.076 211.415L121.3 211.811L162.82 188.365V275.293L162.167 275.664L162.166 275.664L85.8389 318.763V276.099V231.835L121.3 211.811Z" stroke="#2DD697"/>
<path d="M0.164124 278.741L77.129 322.209L66.6936 328.104L0.164131 365.67L-76.8006 322.209L0.164124 278.741Z" stroke="#2DD697"/>
<path d="M38.5252 350.587L38.3012 350.19L38.5252 350.587L80.0455 327.14V414.069L79.3916 414.439L79.3909 414.44L3.06396 457.538V414.875V370.61L38.5252 350.587Z" stroke="#2DD697"/>
<defs>
<clipPath id="clip0_651_382">
<rect width="791" height="758" fill="white" transform="translate(1408 1693)"/>
</clipPath>
</defs>
</svg>
