<svg width="513" height="1269" viewBox="0 0 513 1269" fill="none" xmlns="http://www.w3.org/2000/svg">
<g clip-path="url(#clip0_333_277)">
<path d="M174.26 678L13 585.078V399.247L174.26 492.169V678.013V678ZM14.3795 584.282L15.8982 585.154L172.881 675.6V492.952L14.3795 401.634V584.282Z" fill="#60EEF1"/>
<path d="M178.5 484.843L178.158 484.641L17.2397 391.922L178.5 299L178.842 299.202L339.76 391.922L178.5 484.843ZM19.9987 391.922L178.5 483.252L315.069 404.565L337.001 391.922L178.5 300.591L19.9987 391.922Z" fill="#60EEF1"/>
<path d="M178.551 484.869L178.146 484.641L18.2775 392.515L18.9609 391.328L179.753 483.972L178.551 484.869Z" fill="#60EEF1"/>
<path d="M182.74 678V492.156L183.081 491.954L344 399.235V585.078L341.785 586.354L182.74 678ZM184.119 492.965V675.613L342.621 584.283V401.635L184.119 492.965Z" fill="#60EEF1"/>
</g>
<g clip-path="url(#clip1_333_277)">
<path d="M343.26 974L182 881.078V695.247L343.26 788.169V974.013V974ZM183.379 880.282L184.898 881.154L341.881 971.6V788.952L183.379 697.634V880.282Z" fill="#60EEF1"/>
<path d="M347.5 780.843L347.158 780.641L186.24 687.922L347.5 595L347.842 595.202L508.76 687.922L347.5 780.843ZM188.999 687.922L347.5 779.252L484.069 700.565L506.001 687.922L347.5 596.591L188.999 687.922Z" fill="#60EEF1"/>
<path d="M347.551 780.869L347.146 780.641L187.277 688.515L187.961 687.328L348.753 779.972L347.551 780.869Z" fill="#60EEF1"/>
<path d="M351.74 974V788.156L352.081 787.954L513 695.235V881.078L510.785 882.354L351.74 974ZM353.119 788.965V971.613L511.621 880.283V697.635L353.119 788.965Z" fill="#60EEF1"/>
</g>
<g clip-path="url(#clip2_333_277)">
<path d="M13.2603 974L-148 881.078V695.247L13.2603 788.169V974.013V974ZM-146.621 880.282L-145.102 881.154L11.8808 971.6V788.952L-146.621 697.634V880.282Z" fill="#60EEF1"/>
<path d="M17.5 780.843L17.1583 780.641L-143.76 687.922L17.5 595L17.8417 595.202L178.76 687.922L17.5 780.843ZM-141.001 687.922L17.5 779.252L154.069 700.565L176.001 687.922L17.5 596.591L-141.001 687.922Z" fill="#60EEF1"/>
<path d="M17.5506 780.869L17.1456 780.641L-142.723 688.515L-142.039 687.328L18.7529 779.972L17.5506 780.869Z" fill="#60EEF1"/>
<path d="M21.7397 974V788.156L22.0814 787.954L183 695.235V881.078L180.785 882.354L21.7397 974ZM23.1192 788.965V971.613L181.621 880.283V697.635L23.1192 788.965Z" fill="#60EEF1"/>
</g>
<g clip-path="url(#clip3_333_277)">
<path d="M13.2603 379L-148 286.078V100.247L13.2603 193.169V379.013V379ZM-146.621 285.282L-145.102 286.154L11.8808 376.6V193.952L-146.621 102.634V285.282Z" fill="#60EEF1"/>
<path d="M17.5 185.843L17.1583 185.641L-143.76 92.9217L17.5 0L17.8417 0.202086L178.76 92.9217L17.5 185.843ZM-141.001 92.9217L17.5 184.252L154.069 105.565L176.001 92.9217L17.5 1.59143L-141.001 92.9217Z" fill="#60EEF1"/>
<path d="M17.5506 185.869L17.1456 185.641L-142.723 93.5154L-142.039 92.3281L18.7529 184.972L17.5506 185.869Z" fill="#60EEF1"/>
<path d="M21.7397 379V193.156L22.0814 192.954L183 100.235V286.078L180.785 287.354L21.7397 379ZM23.1192 193.965V376.613L181.621 285.283V102.635L23.1192 193.965Z" fill="#60EEF1"/>
</g>
<g clip-path="url(#clip4_333_277)">
<path d="M181.26 1269L20 1176.08V990.247L181.26 1083.17V1269.01V1269ZM21.3795 1175.28L22.8982 1176.15L179.881 1266.6V1083.95L21.3795 992.634V1175.28Z" fill="#60EEF1"/>
<path d="M185.5 1075.84L185.158 1075.64L24.2397 982.922L185.5 890L185.842 890.202L346.76 982.922L185.5 1075.84ZM26.9987 982.922L185.5 1074.25L322.069 995.565L344.001 982.922L185.5 891.591L26.9987 982.922Z" fill="#60EEF1"/>
<path d="M185.551 1075.87L185.146 1075.64L25.2775 983.515L25.9609 982.328L186.753 1074.97L185.551 1075.87Z" fill="#60EEF1"/>
<path d="M189.74 1269V1083.16L190.081 1082.95L351 990.235V1176.08L348.785 1177.35L189.74 1269ZM191.119 1083.96V1266.61L349.621 1175.28V992.635L191.119 1083.96Z" fill="#60EEF1"/>
</g>
<defs>
<clipPath id="clip0_333_277">
<rect width="331" height="379" fill="white" transform="translate(13 299)"/>
</clipPath>
<clipPath id="clip1_333_277">
<rect width="331" height="379" fill="white" transform="translate(182 595)"/>
</clipPath>
<clipPath id="clip2_333_277">
<rect width="331" height="379" fill="white" transform="translate(-148 595)"/>
</clipPath>
<clipPath id="clip3_333_277">
<rect width="331" height="379" fill="white" transform="translate(-148)"/>
</clipPath>
<clipPath id="clip4_333_277">
<rect width="331" height="379" fill="white" transform="translate(20 890)"/>
</clipPath>
</defs>
</svg>
