<svg width="690" height="1586" viewBox="0 0 690 1586" fill="none" xmlns="http://www.w3.org/2000/svg">
<g clip-path="url(#clip0_333_275)">
<path d="M671.26 379L510 286.078V100.247L671.26 193.169V379.013V379ZM511.379 285.282L512.898 286.154L669.881 376.6V193.952L511.379 102.634V285.282Z" fill="#60EEF1"/>
<path d="M675.5 185.843L675.158 185.641L514.24 92.9217L675.5 0L675.842 0.202086L836.76 92.9217L675.5 185.843ZM516.999 92.9217L675.5 184.252L812.069 105.565L834.001 92.9217L675.5 1.59143L516.999 92.9217Z" fill="#60EEF1"/>
<path d="M675.551 185.869L675.146 185.641L515.277 93.5154L515.961 92.3281L676.753 184.972L675.551 185.869Z" fill="#60EEF1"/>
<path d="M679.74 379V193.157L680.081 192.955L841 100.235V286.078L838.785 287.354L679.74 379ZM681.119 193.965V376.613L839.621 285.283V102.635L681.119 193.965Z" fill="#60EEF1"/>
</g>
<g clip-path="url(#clip1_333_275)">
<path d="M671.26 983L510 890.078V704.247L671.26 797.169V983.013V983ZM511.379 889.282L512.898 890.154L669.881 980.6V797.952L511.379 706.634V889.282Z" fill="#60EEF1"/>
<path d="M675.5 789.843L675.158 789.641L514.24 696.922L675.5 604L675.842 604.202L836.76 696.922L675.5 789.843ZM516.999 696.922L675.5 788.252L812.069 709.565L834.001 696.922L675.5 605.591L516.999 696.922Z" fill="#60EEF1"/>
<path d="M675.551 789.869L675.146 789.641L515.277 697.515L515.961 696.328L676.753 788.972L675.551 789.869Z" fill="#60EEF1"/>
<path d="M679.74 983V797.157L680.081 796.955L841 704.235V890.078L838.785 891.354L679.74 983ZM681.119 797.965V980.613L839.621 889.283V706.635L681.119 797.965Z" fill="#60EEF1"/>
</g>
<g clip-path="url(#clip2_333_275)">
<path d="M502.26 681L341 588.078V402.247L502.26 495.169V681.013V681ZM342.379 587.282L343.898 588.154L500.881 678.6V495.952L342.379 404.634V587.282Z" fill="#60EEF1"/>
<path d="M506.5 487.843L506.158 487.641L345.24 394.922L506.5 302L506.842 302.202L667.76 394.922L506.5 487.843ZM347.999 394.922L506.5 486.252L643.069 407.565L665.001 394.922L506.5 303.591L347.999 394.922Z" fill="#60EEF1"/>
<path d="M506.551 487.869L506.146 487.641L346.277 395.515L346.961 394.328L507.753 486.972L506.551 487.869Z" fill="#60EEF1"/>
<path d="M510.74 681V495.157L511.081 494.955L672 402.235V588.078L669.785 589.354L510.74 681ZM512.119 495.965V678.613L670.621 587.283V404.635L512.119 495.965Z" fill="#60EEF1"/>
</g>
<g clip-path="url(#clip3_333_275)">
<path d="M502.26 1286L341 1193.08V1007.25L502.26 1100.17V1286.01V1286ZM342.379 1192.28L343.898 1193.15L500.881 1283.6V1100.95L342.379 1009.63V1192.28Z" fill="#60EEF1"/>
<path d="M506.5 1092.84L506.158 1092.64L345.24 999.922L506.5 907L506.842 907.202L667.76 999.922L506.5 1092.84ZM347.999 999.922L506.5 1091.25L643.069 1012.56L665.001 999.922L506.5 908.591L347.999 999.922Z" fill="#60EEF1"/>
<path d="M506.551 1092.87L506.146 1092.64L346.277 1000.52L346.961 999.328L507.753 1091.97L506.551 1092.87Z" fill="#60EEF1"/>
<path d="M510.74 1286V1100.16L511.081 1099.95L672 1007.23V1193.08L669.785 1194.35L510.74 1286ZM512.119 1100.96V1283.61L670.621 1192.28V1009.63L512.119 1100.96Z" fill="#60EEF1"/>
</g>
<g clip-path="url(#clip4_333_275)">
<path d="M332.26 1585L171 1492.08V1306.25L332.26 1399.17V1585.01V1585ZM172.379 1491.28L173.898 1492.15L330.881 1582.6V1399.95L172.379 1308.63V1491.28Z" fill="#60EEF1"/>
<path d="M336.5 1391.84L336.158 1391.64L175.24 1298.92L336.5 1206L336.842 1206.2L497.76 1298.92L336.5 1391.84ZM177.999 1298.92L336.5 1390.25L473.069 1311.56L495.001 1298.92L336.5 1207.59L177.999 1298.92Z" fill="#60EEF1"/>
<path d="M336.551 1391.87L336.146 1391.64L176.277 1299.52L176.961 1298.33L337.753 1390.97L336.551 1391.87Z" fill="#60EEF1"/>
<path d="M340.74 1585V1399.16L341.081 1398.95L502 1306.23V1492.08L499.785 1493.35L340.74 1585ZM342.119 1399.96V1582.61L500.621 1491.28V1308.63L342.119 1399.96Z" fill="#60EEF1"/>
</g>
<g clip-path="url(#clip5_333_275)">
<path d="M161.26 1285L0 1192.08V1006.25L161.26 1099.17V1285.01V1285ZM1.37948 1191.28L2.89818 1192.15L159.881 1282.6V1099.95L1.37948 1008.63V1191.28Z" fill="#60EEF1"/>
<path d="M165.5 1091.84L165.158 1091.64L4.23969 998.922L165.5 906L165.842 906.202L326.76 998.922L165.5 1091.84ZM6.99866 998.922L165.5 1090.25L302.069 1011.56L324.001 998.922L165.5 907.591L6.99866 998.922Z" fill="#60EEF1"/>
<path d="M165.551 1091.87L165.146 1091.64L5.27747 999.515L5.96089 998.328L166.753 1090.97L165.551 1091.87Z" fill="#60EEF1"/>
<path d="M169.74 1285V1099.16L170.081 1098.95L331 1006.23V1192.08L328.785 1193.35L169.74 1285ZM171.119 1099.96V1282.61L329.621 1191.28V1008.63L171.119 1099.96Z" fill="#60EEF1"/>
</g>
<g clip-path="url(#clip6_333_275)">
<path d="M332.26 980L171 887.078V701.247L332.26 794.169V980.013V980ZM172.379 886.282L173.898 887.154L330.881 977.6V794.952L172.379 703.634V886.282Z" fill="#60EEF1"/>
<path d="M336.5 786.843L336.158 786.641L175.24 693.922L336.5 601L336.842 601.202L497.76 693.922L336.5 786.843ZM177.999 693.922L336.5 785.252L473.069 706.565L495.001 693.922L336.5 602.591L177.999 693.922Z" fill="#60EEF1"/>
<path d="M336.551 786.869L336.146 786.641L176.277 694.515L176.961 693.328L337.753 785.972L336.551 786.869Z" fill="#60EEF1"/>
<path d="M340.74 980V794.157L341.081 793.955L502 701.235V887.078L499.785 888.354L340.74 980ZM342.119 794.965V977.613L500.621 886.283V703.635L342.119 794.965Z" fill="#60EEF1"/>
</g>
<g clip-path="url(#clip7_333_275)">
<path d="M668.26 1586L507 1493.08V1307.25L668.26 1400.17V1586.01V1586ZM508.379 1492.28L509.898 1493.15L666.881 1583.6V1400.95L508.379 1309.63V1492.28Z" fill="#60EEF1"/>
<path d="M672.5 1392.84L672.158 1392.64L511.24 1299.92L672.5 1207L672.842 1207.2L833.76 1299.92L672.5 1392.84ZM513.999 1299.92L672.5 1391.25L809.069 1312.56L831.001 1299.92L672.5 1208.59L513.999 1299.92Z" fill="#60EEF1"/>
<path d="M672.551 1392.87L672.146 1392.64L512.277 1300.52L512.961 1299.33L673.753 1391.97L672.551 1392.87Z" fill="#60EEF1"/>
<path d="M676.74 1586V1400.16L677.081 1399.95L838 1307.23V1493.08L835.785 1494.35L676.74 1586ZM678.119 1400.96V1583.61L836.621 1492.28V1309.63L678.119 1400.96Z" fill="#60EEF1"/>
</g>
<defs>
<clipPath id="clip0_333_275">
<rect width="331" height="379" fill="white" transform="translate(510)"/>
</clipPath>
<clipPath id="clip1_333_275">
<rect width="331" height="379" fill="white" transform="translate(510 604)"/>
</clipPath>
<clipPath id="clip2_333_275">
<rect width="331" height="379" fill="white" transform="translate(341 302)"/>
</clipPath>
<clipPath id="clip3_333_275">
<rect width="331" height="379" fill="white" transform="translate(341 907)"/>
</clipPath>
<clipPath id="clip4_333_275">
<rect width="331" height="379" fill="white" transform="translate(171 1206)"/>
</clipPath>
<clipPath id="clip5_333_275">
<rect width="331" height="379" fill="white" transform="translate(0 906)"/>
</clipPath>
<clipPath id="clip6_333_275">
<rect width="331" height="379" fill="white" transform="translate(171 601)"/>
</clipPath>
<clipPath id="clip7_333_275">
<rect width="331" height="379" fill="white" transform="translate(507 1207)"/>
</clipPath>
</defs>
</svg>
