<svg width="357" height="675" viewBox="0 0 357 675" fill="none" xmlns="http://www.w3.org/2000/svg">
<g clip-path="url(#clip0_333_276)">
<path d="M-148.5 481.843L-148.842 481.641L-309.76 388.922L-148.5 296L-148.158 296.202L12.7603 388.922L-148.5 481.843ZM-307.001 388.922L-148.5 480.252L-11.9312 401.565L10.0014 388.922L-148.5 297.591L-307.001 388.922Z" fill="#60EEF1"/>
<path d="M-144.26 675V489.157L-143.919 488.955L17 396.235V582.078L14.7853 583.354L-144.26 675ZM-142.881 489.965V672.613L15.6206 581.283V398.635L-142.881 489.965Z" fill="#60EEF1"/>
</g>
<g clip-path="url(#clip1_333_276)">
<path d="M14.2603 379L-147 286.078V100.247L14.2603 193.169V379.013V379ZM-145.621 285.282L-144.102 286.154L12.8808 376.6V193.952L-145.621 102.634V285.282Z" fill="#60EEF1"/>
<path d="M18.5 185.843L18.1583 185.641L-142.76 92.9217L18.5 0L18.8417 0.202086L179.76 92.9217L18.5 185.843ZM-140.001 92.9217L18.5 184.252L155.069 105.565L177.001 92.9217L18.5 1.59143L-140.001 92.9217Z" fill="#60EEF1"/>
<path d="M18.5506 185.869L18.1456 185.641L-141.723 93.5154L-141.039 92.3281L19.7529 184.972L18.5506 185.869Z" fill="#60EEF1"/>
<path d="M22.7397 379V193.157L23.0814 192.955L184 100.235V286.078L181.785 287.354L22.7397 379ZM24.1192 193.965V376.613L182.621 285.283V102.635L24.1192 193.965Z" fill="#60EEF1"/>
</g>
<g clip-path="url(#clip2_333_276)">
<path d="M187.26 675L26 582.078V396.247L187.26 489.169V675.013V675ZM27.3795 581.282L28.8982 582.154L185.881 672.6V489.952L27.3795 398.634V581.282Z" fill="#60EEF1"/>
<path d="M191.5 481.843L191.158 481.641L30.2397 388.922L191.5 296L191.842 296.202L352.76 388.922L191.5 481.843ZM32.9987 388.922L191.5 480.252L328.069 401.565L350.001 388.922L191.5 297.591L32.9987 388.922Z" fill="#60EEF1"/>
<path d="M191.551 481.869L191.146 481.641L31.2775 389.515L31.9609 388.328L192.753 480.972L191.551 481.869Z" fill="#60EEF1"/>
<path d="M195.74 675V489.157L196.081 488.955L357 396.235V582.078L354.785 583.354L195.74 675ZM197.119 489.965V672.613L355.621 581.283V398.635L197.119 489.965Z" fill="#60EEF1"/>
</g>
<defs>
<clipPath id="clip0_333_276">
<rect width="331" height="379" fill="white" transform="translate(-314 296)"/>
</clipPath>
<clipPath id="clip1_333_276">
<rect width="331" height="379" fill="white" transform="translate(-147)"/>
</clipPath>
<clipPath id="clip2_333_276">
<rect width="331" height="379" fill="white" transform="translate(26 296)"/>
</clipPath>
</defs>
</svg>
