<svg width="352" height="676" viewBox="0 0 352 676" fill="none" xmlns="http://www.w3.org/2000/svg">
<g clip-path="url(#clip0_331_274)">
<path d="M498.26 676L337 583.078V397.248L498.26 490.169V676.013V676ZM338.379 582.283L339.898 583.154L496.881 673.6V490.952L338.379 399.635V582.283Z" fill="#60EEF1"/>
<path d="M502.5 482.843L502.158 482.641L341.24 389.922L502.5 297L502.842 297.202L663.76 389.922L502.5 482.843ZM343.999 389.922L502.5 481.252L639.069 402.565L661.001 389.922L502.5 298.591L343.999 389.922Z" fill="#60EEF1"/>
<path d="M502.551 482.869L502.146 482.641L342.277 390.515L342.961 389.328L503.753 481.972L502.551 482.869Z" fill="#60EEF1"/>
</g>
<g clip-path="url(#clip1_331_274)">
<path d="M329.26 379L168 286.078V100.248L329.26 193.169V379.013V379ZM169.379 285.283L170.898 286.154L327.881 376.6V193.952L169.379 102.635V285.283Z" fill="#60EEF1"/>
<path d="M333.5 185.843L333.158 185.641L172.24 92.9217L333.5 0L333.842 0.202086L494.76 92.9217L333.5 185.843ZM174.999 92.9217L333.5 184.252L470.069 105.565L492.001 92.9217L333.5 1.59143L174.999 92.9217Z" fill="#60EEF1"/>
<path d="M333.551 185.869L333.146 185.641L173.277 93.5154L173.961 92.3281L334.753 184.972L333.551 185.869Z" fill="#60EEF1"/>
<path d="M337.74 379V193.157L338.081 192.955L499 100.235V286.078L496.785 287.354L337.74 379ZM339.119 193.965V376.613L497.621 285.283V102.635L339.119 193.965Z" fill="#60EEF1"/>
</g>
<g clip-path="url(#clip2_331_274)">
<path d="M161.26 676L0 583.078V397.248L161.26 490.169V676.013V676ZM1.37948 582.283L2.89818 583.154L159.881 673.6V490.952L1.37948 399.635V582.283Z" fill="#60EEF1"/>
<path d="M165.5 482.843L165.158 482.641L4.23969 389.922L165.5 297L165.842 297.202L326.76 389.922L165.5 482.843ZM6.99865 389.922L165.5 481.252L302.069 402.565L324.001 389.922L165.5 298.591L6.99865 389.922Z" fill="#60EEF1"/>
<path d="M165.551 482.869L165.146 482.641L5.27747 390.515L5.96088 389.328L166.753 481.972L165.551 482.869Z" fill="#60EEF1"/>
<path d="M169.74 676V490.157L170.081 489.955L331 397.235V583.078L328.785 584.354L169.74 676ZM171.119 490.965V673.613L329.621 582.283V399.635L171.119 490.965Z" fill="#60EEF1"/>
</g>
<defs>
<clipPath id="clip0_331_274">
<rect width="331" height="379" fill="white" transform="translate(337 297)"/>
</clipPath>
<clipPath id="clip1_331_274">
<rect width="331" height="379" fill="white" transform="translate(168)"/>
</clipPath>
<clipPath id="clip2_331_274">
<rect width="331" height="379" fill="white" transform="translate(0 297)"/>
</clipPath>
</defs>
</svg>
