<svg width="191" height="379" viewBox="0 0 191 379" fill="none" xmlns="http://www.w3.org/2000/svg">
<g clip-path="url(#clip0_5_16988)">
<path d="M21.2603 379L-140 286.078V100.248L21.2603 193.169V379.013V379ZM-138.621 285.283L-137.102 286.154L19.8808 376.6V193.952L-138.621 102.635V285.283Z" fill="#60EEF1"/>
<path d="M25.5 185.843L25.1583 185.641L-135.76 92.9217L25.5 0L25.8417 0.202086L186.76 92.9217L25.5 185.843ZM-133.001 92.9217L25.5 184.252L162.069 105.565L184.001 92.9217L25.5 1.59143L-133.001 92.9217Z" fill="#60EEF1"/>
<path d="M25.5506 185.869L25.1456 185.641L-134.723 93.5154L-134.039 92.3281L26.7529 184.972L25.5506 185.869Z" fill="#60EEF1"/>
<path d="M29.7397 379V193.157L30.0814 192.955L191 100.235V286.078L188.785 287.354L29.7397 379ZM31.1192 193.965V376.613L189.621 285.283V102.635L31.1192 193.965Z" fill="#60EEF1"/>
</g>
<defs>
<clipPath id="clip0_5_16988">
<rect width="331" height="379" fill="white" transform="translate(-140)"/>
</clipPath>
</defs>
</svg>
